<svg width="77" height="48" viewBox="0 0 77 48" fill="none" xmlns="http://www.w3.org/2000/svg">
<path d="M31.6671 37.7342L32.8162 37.6458C33.2581 37.6094 33.5909 37.2247 33.5545 36.7827L33.4558 35.514C33.4194 35.0721 33.0346 34.7393 32.5926 34.7757L31.4487 34.8641C31.1159 33.9385 30.5596 33.1586 29.8628 32.5607L30.3568 31.5207C30.5492 31.1204 30.3776 30.642 29.9772 30.4496L28.8281 29.9037C28.4277 29.7113 27.9494 29.8829 27.757 30.2832L27.263 31.3232C26.3583 31.1568 25.4016 31.214 24.4761 31.5415L23.8261 30.5952C23.5765 30.2312 23.0722 30.1377 22.7082 30.3872L21.6579 31.11C21.2939 31.3596 21.2003 31.8639 21.4499 32.2279L22.1051 33.1794C21.4915 33.9021 21.0808 34.7705 20.904 35.7012L19.7548 35.7896C19.3129 35.826 18.9801 36.2108 19.0165 36.6527L19.1153 37.9214C19.1517 38.3634 19.5365 38.6962 19.9784 38.6598L21.1223 38.5714C21.4551 39.4969 22.0115 40.2768 22.7082 40.8748L22.2142 41.9147C22.0219 42.3151 22.1935 42.7934 22.5938 42.9858L23.7429 43.5318C24.1433 43.7241 24.6216 43.5526 24.814 43.1522L25.308 42.1123C26.2127 42.2787 27.1695 42.2215 28.095 41.8939L28.7449 42.8402C28.9945 43.2042 29.4989 43.2978 29.8628 43.0482L30.9131 42.3255C31.2771 42.0759 31.3707 41.5715 31.1211 41.2076L30.466 40.256C31.0743 39.5333 31.4903 38.665 31.6671 37.7342Z" stroke="#325BEC" stroke-width="1.5" stroke-miterlimit="10" stroke-linecap="round"/>
<path d="M26.2802 47.0002C31.9603 47.0002 36.5649 42.3955 36.5649 36.7154C36.5649 31.0353 31.9603 26.4307 26.2802 26.4307C20.6001 26.4307 15.9954 31.0353 15.9954 36.7154C15.9954 42.3955 20.6001 47.0002 26.2802 47.0002Z" stroke="#325BEC" stroke-width="1.5" stroke-miterlimit="10" stroke-linecap="round"/>
<path d="M4.72809 24.7974L14.3629 15.1626" stroke="#325BEC" stroke-width="1.5" stroke-miterlimit="10" stroke-linecap="round"/>
<path d="M2.86157 22.9364L12.5016 13.2964" stroke="#325BEC" stroke-width="1.5" stroke-miterlimit="10" stroke-linecap="round"/>
<path d="M1 21.0748L10.64 11.4348" stroke="#325BEC" stroke-width="1.5" stroke-miterlimit="10" stroke-linecap="round"/>
<path d="M47.8322 24.7974L38.1974 15.1626" stroke="#325BEC" stroke-width="1.5" stroke-miterlimit="10" stroke-linecap="round"/>
<path d="M49.6938 22.9364L40.059 13.2964" stroke="#325BEC" stroke-width="1.5" stroke-miterlimit="10" stroke-linecap="round"/>
<path d="M51.5554 21.0748L41.9206 11.4348" stroke="#325BEC" stroke-width="1.5" stroke-miterlimit="10" stroke-linecap="round"/>
<path d="M46.7408 16.255L51.1864 11.8042L42.2223 2.84009H26.2804H10.3385L1.36926 11.8042L5.8201 16.255" stroke="#325BEC" stroke-width="1.5" stroke-miterlimit="10" stroke-linecap="round"/>
<path d="M23.7587 26.7425L15.4862 18.47L8.03522 25.921L16.3077 34.1935C17.2281 30.5382 20.1034 27.6628 23.7587 26.7425Z" stroke="#325BEC" stroke-width="1.5" stroke-miterlimit="10" stroke-linecap="round"/>
<path d="M36.2477 34.1935L44.5202 25.921L37.0692 18.47L28.7967 26.7425C32.452 27.6628 35.3274 30.5382 36.2477 34.1935Z" stroke="#325BEC" stroke-width="1.5" stroke-miterlimit="10" stroke-linecap="round"/>
<path d="M26.2805 14.5283C28.4773 14.5283 30.2581 12.7475 30.2581 10.5507C30.2581 8.35386 28.4773 6.573 26.2805 6.573C24.0836 6.573 22.3028 8.35386 22.3028 10.5507C22.3028 12.7475 24.0836 14.5283 26.2805 14.5283Z" stroke="#325BEC" stroke-width="1.5" stroke-miterlimit="10" stroke-linecap="round"/>
<path d="M27.7362 10.5511C27.7362 9.74516 27.0862 9.09521 26.2803 9.09521C25.4743 9.09521 24.8244 9.74516 24.8244 10.5511C24.8244 11.357 25.4743 12.007 26.2803 12.007C27.081 12.007 27.7362 11.357 27.7362 10.5511Z" stroke="#325BEC" stroke-width="1.5" stroke-miterlimit="10" stroke-linecap="round"/>
<path d="M30.2581 9.89038L31.4851 19.8372" stroke="#325BEC" stroke-width="1.5" stroke-miterlimit="10" stroke-linecap="round"/>
<path d="M22.3028 9.89038L21.0757 19.8372" stroke="#325BEC" stroke-width="1.5" stroke-miterlimit="10" stroke-linecap="round"/>
<path d="M56.5551 5.4668H49.2881C48.0234 5.4668 46.9998 6.49043 46.9998 7.75516V42.8717C46.9998 44.1364 48.0234 45.16 49.2881 45.16H73.7749C75.0397 45.16 76.0633 44.1364 76.0633 42.8717V7.75939C76.0633 6.49466 75.0397 5.47103 73.7749 5.47103H66.1696" fill="#F6F7F9"/>
<path d="M56.5551 5.4668H49.2881C48.0234 5.4668 46.9998 6.49043 46.9998 7.75516V42.8717C46.9998 44.1364 48.0234 45.16 49.2881 45.16H73.7749C75.0397 45.16 76.0633 44.1364 76.0633 42.8717V7.75939C76.0633 6.49466 75.0397 5.47103 73.7749 5.47103H66.1696" stroke="#325BEC" stroke-width="1.5" stroke-miterlimit="10" stroke-linecap="round"/>
<path d="M63.8771 3.48717V3.34759C63.8771 2.05324 62.8281 1 61.5295 1C60.2351 1 59.1819 2.04901 59.1819 3.34759V3.48717" stroke="#325BEC" stroke-width="1.5" stroke-miterlimit="10" stroke-linecap="round"/>
<path d="M56.5551 4.14269V9.08743C56.5551 9.55695 56.9358 9.93341 57.4011 9.93341H57.7395C58.1625 9.93341 58.522 9.61616 58.577 9.1974L58.5897 9.09166C58.7843 7.61543 60.0405 6.51143 61.5252 6.51143C63.0141 6.51143 64.2704 7.61543 64.4608 9.09166L64.4734 9.1974C64.5284 9.62039 64.888 9.93341 65.311 9.93341C65.7805 9.93341 66.157 9.55272 66.157 9.08743V4.14269C66.157 3.78315 65.8651 3.48706 65.5013 3.48706H57.1938C56.847 3.48706 56.5551 3.77892 56.5551 4.14269Z" stroke="#325BEC" stroke-width="1.5" stroke-miterlimit="10" stroke-linecap="round"/>
<path d="M56.5551 5.4668H49.2881C48.0234 5.4668 46.9998 6.49043 46.9998 7.75516V42.8717C46.9998 44.1364 48.0234 45.16 49.2881 45.16H73.7749C75.0397 45.16 76.0633 44.1364 76.0633 42.8717V7.75939C76.0633 6.49466 75.0397 5.47103 73.7749 5.47103H66.1696" stroke="#325BEC" stroke-width="1.5" stroke-miterlimit="10" stroke-linecap="round"/>
<path d="M50.3923 8.85889V41.7716H66.5632L72.6711 35.6637V8.85889" stroke="#325BEC" stroke-width="1.5" stroke-miterlimit="10" stroke-linecap="round"/>
<path d="M58.9325 22.8723L56.238 25.7233L54.9395 24.4205" stroke="#325BEC" stroke-width="1.5" stroke-miterlimit="10" stroke-linecap="round"/>
<path d="M58.9325 30.4399L56.238 33.2909L54.9395 31.9881" stroke="#325BEC" stroke-width="1.5" stroke-miterlimit="10" stroke-linecap="round"/>
<path d="M58.9325 15.72L56.238 18.5709L54.9395 17.2681" stroke="#325BEC" stroke-width="1.5" stroke-miterlimit="10" stroke-linecap="round"/>
<path d="M60.5695 17.7925H69.8583" stroke="#325BEC" stroke-width="1.5" stroke-miterlimit="10" stroke-linecap="round"/>
<path d="M60.5695 25.9099H69.8583" stroke="#325BEC" stroke-width="1.5" stroke-miterlimit="10" stroke-linecap="round"/>
</svg>
