<svg width="79" height="48" viewBox="0 0 79 48" fill="none" xmlns="http://www.w3.org/2000/svg">
<path d="M11.0662 9.13208V10.2276C11.0662 14.7959 14.2598 18.5051 18.0026 18.5051C21.7499 18.5051 24.939 14.8004 24.939 10.2321V9.15935" fill="#F6F7F9"/>
<path d="M11.0662 9.13208V10.2276C11.0662 14.7959 14.2598 18.5051 18.0026 18.5051C21.7499 18.5051 24.939 14.8004 24.939 10.2321V9.15935" stroke="#325BEC" stroke-width="1.5" stroke-miterlimit="10" stroke-linecap="round"/>
<path d="M11.0705 9.02752C11.0705 9.02752 10.979 10.1458 11.83 11.2276C12.5758 12.1731 13.889 12.4822 15.0008 12.0094C15.8198 11.664 16.9546 11.2867 18.0069 11.2867H18.0023C19.0501 11.2867 20.1849 11.664 21.0084 12.0094C22.1203 12.4776 23.438 12.1731 24.1792 11.2276C25.0303 10.1458 24.9388 9.02752 24.9388 9.02752L24.9434 7.99569C24.9434 6.1229 24.2525 4.29101 22.9027 2.98188C21.6399 1.75456 19.9149 1 18.0069 1C16.0989 1 14.374 1.75456 13.1112 2.98188C11.766 4.29101 11.0705 6.1229 11.0705 7.99569V8.70025C11.13 8.70935 13.7151 8.95936 18.2906 8.84572" fill="#F6F7F9"/>
<path d="M11.0705 9.02752C11.0705 9.02752 10.979 10.1458 11.83 11.2276C12.5758 12.1731 13.889 12.4822 15.0008 12.0094C15.8198 11.664 16.9546 11.2867 18.0069 11.2867H18.0023C19.0501 11.2867 20.1849 11.664 21.0084 12.0094C22.1203 12.4776 23.438 12.1731 24.1792 11.2276C25.0303 10.1458 24.9388 9.02752 24.9388 9.02752L24.9434 7.99569C24.9434 6.1229 24.2525 4.29101 22.9027 2.98188C21.6399 1.75456 19.9149 1 18.0069 1C16.0989 1 14.374 1.75456 13.1112 2.98188C11.766 4.29101 11.0705 6.1229 11.0705 7.99569V8.70025C11.13 8.70935 13.7151 8.95936 18.2906 8.84572" stroke="#325BEC" stroke-width="1.5" stroke-miterlimit="10" stroke-linecap="round"/>
<path d="M1 40.4287C1 39.5559 2.29029 25.81 2.29029 25.81L11.6105 19.7507C13.3446 21.5008 15.5729 22.4008 18.0025 22.4008C20.4275 22.4008 22.6603 21.4962 24.3944 19.7507L33.7147 25.81C33.7147 25.81 35.005 39.5559 35.005 40.4287" fill="#F6F7F9"/>
<path d="M1 40.4287C1 39.5559 2.29029 25.81 2.29029 25.81L11.6105 19.7507C13.3446 21.5008 15.5729 22.4008 18.0025 22.4008C20.4275 22.4008 22.6603 21.4962 24.3944 19.7507L33.7147 25.81C33.7147 25.81 35.005 39.5559 35.005 40.4287H1Z" stroke="#325BEC" stroke-width="1.5" stroke-miterlimit="10" stroke-linecap="round"/>
<path d="M7.23193 22.5962V29.1418V40.4286H18.0026H17.9614H28.7321V29.1418" stroke="#325BEC" stroke-width="1.5" stroke-miterlimit="10" stroke-linecap="round"/>
<path d="M24.4403 19.7507V24.16C24.4403 27.1237 22.0199 29.5283 19.0367 29.5283H18.0072H16.932C13.9488 29.5283 11.5283 27.1237 11.5283 24.16V19.7507" stroke="#325BEC" stroke-width="1.5" stroke-miterlimit="10" stroke-linecap="round"/>
<path d="M11.0662 9.13208V10.2276C11.0662 14.7959 14.2598 18.5051 18.0026 18.5051C21.7499 18.5051 24.939 14.8004 24.939 10.2321V9.15935" stroke="#325BEC" stroke-width="1.5" stroke-miterlimit="10" stroke-linecap="round"/>
<path d="M1 40.4287C1 39.5559 2.29029 25.81 2.29029 25.81L11.6105 19.7507C13.3446 21.5008 15.5729 22.4008 18.0025 22.4008C20.4275 22.4008 22.6603 21.4962 24.3944 19.7507L33.7147 25.81C33.7147 25.81 35.005 39.5559 35.005 40.4287" stroke="#325BEC" stroke-width="1.5" stroke-miterlimit="10" stroke-linecap="round"/>
<path d="M7.23193 33.0283H12.5349" stroke="#325BEC" stroke-width="1.5" stroke-miterlimit="10" stroke-linecap="round"/>
<path d="M7.23193 35.374H12.5349" stroke="#325BEC" stroke-width="1.5" stroke-miterlimit="10" stroke-linecap="round"/>
<path d="M11.0705 9.02752C11.0705 9.02752 10.979 10.1458 11.83 11.2276C12.5758 12.1731 13.889 12.4822 15.0008 12.0094C15.8198 11.664 16.9546 11.2867 18.0069 11.2867H18.0023C19.0501 11.2867 20.1849 11.664 21.0084 12.0094C22.1203 12.4776 23.438 12.1731 24.1792 11.2276C25.0303 10.1458 24.9388 9.02752 24.9388 9.02752L24.9434 7.99569C24.9434 6.1229 24.2525 4.29101 22.9027 2.98188C21.6399 1.75456 19.9149 1 18.0069 1C16.0989 1 14.374 1.75456 13.1112 2.98188C11.766 4.29101 11.0705 6.1229 11.0705 7.99569V8.70025C11.13 8.70935 13.7151 8.95936 18.2906 8.84572" stroke="#325BEC" stroke-width="1.5" stroke-miterlimit="10" stroke-linecap="round"/>
<path d="M54.061 9.13208V10.2276C54.061 14.7959 57.2547 18.5051 60.9975 18.5051C64.7448 18.5051 67.9339 14.8004 67.9339 10.2321V9.15935" fill="#F6F7F9"/>
<path d="M54.061 9.13208V10.2276C54.061 14.7959 57.2547 18.5051 60.9975 18.5051C64.7448 18.5051 67.9339 14.8004 67.9339 10.2321V9.15935" stroke="#325BEC" stroke-width="1.5" stroke-miterlimit="10" stroke-linecap="round"/>
<path d="M54.0656 9.02752C54.0656 9.02752 53.9741 10.1458 54.8251 11.2276C55.5709 12.1731 56.8841 12.4822 57.9959 12.0094C58.815 11.664 59.9497 11.2867 61.002 11.2867H60.9975C62.0453 11.2867 63.18 11.664 64.0036 12.0094C65.1154 12.4776 66.4331 12.1731 67.1744 11.2276C68.0254 10.1458 67.9339 9.02752 67.9339 9.02752L67.9385 7.99569C67.9385 6.1229 67.2476 4.29101 65.8978 2.98188C64.635 1.75456 62.91 1 61.002 1C59.0941 1 57.3691 1.75456 56.1063 2.98188C54.7611 4.29101 54.0656 6.1229 54.0656 7.99569V8.70025C54.1251 8.70935 56.7102 8.95936 61.2857 8.84572" fill="#F6F7F9"/>
<path d="M54.0656 9.02752C54.0656 9.02752 53.9741 10.1458 54.8251 11.2276C55.5709 12.1731 56.8841 12.4822 57.9959 12.0094C58.815 11.664 59.9497 11.2867 61.002 11.2867H60.9975C62.0453 11.2867 63.18 11.664 64.0036 12.0094C65.1154 12.4776 66.4331 12.1731 67.1744 11.2276C68.0254 10.1458 67.9339 9.02752 67.9339 9.02752L67.9385 7.99569C67.9385 6.1229 67.2476 4.29101 65.8978 2.98188C64.635 1.75456 62.91 1 61.002 1C59.0941 1 57.3691 1.75456 56.1063 2.98188C54.7611 4.29101 54.0656 6.1229 54.0656 7.99569V8.70025C54.1251 8.70935 56.7102 8.95936 61.2857 8.84572" stroke="#325BEC" stroke-width="1.5" stroke-miterlimit="10" stroke-linecap="round"/>
<path d="M43.9951 40.4287C43.9951 39.5559 45.2854 25.81 45.2854 25.81L54.6057 19.7507C56.3398 21.5008 58.568 22.4008 60.9976 22.4008C63.4226 22.4008 65.6554 21.4962 67.3896 19.7507L76.7098 25.81C76.7098 25.81 78.0001 39.5559 78.0001 40.4287" fill="#F6F7F9"/>
<path d="M43.9951 40.4287C43.9951 39.5559 45.2854 25.81 45.2854 25.81L54.6057 19.7507C56.3398 21.5008 58.568 22.4008 60.9976 22.4008C63.4226 22.4008 65.6554 21.4962 67.3896 19.7507L76.7098 25.81C76.7098 25.81 78.0001 39.5559 78.0001 40.4287H43.9951Z" stroke="#325BEC" stroke-width="1.5" stroke-miterlimit="10" stroke-linecap="round"/>
<path d="M50.2268 29.1418V40.4286H60.9975H60.9563H71.727V29.1418V22.5962" stroke="#325BEC" stroke-width="1.5" stroke-miterlimit="10" stroke-linecap="round"/>
<path d="M67.4354 19.7507V24.16C67.4354 27.1237 65.015 29.5283 62.0318 29.5283H61.0023H59.9271C56.9439 29.5283 54.5234 27.1237 54.5234 24.16V19.7507" stroke="#325BEC" stroke-width="1.5" stroke-miterlimit="10" stroke-linecap="round"/>
<path d="M54.061 9.13208V10.2276C54.061 14.7959 57.2547 18.5051 60.9975 18.5051C64.7448 18.5051 67.9339 14.8004 67.9339 10.2321V9.15935" stroke="#325BEC" stroke-width="1.5" stroke-miterlimit="10" stroke-linecap="round"/>
<path d="M43.9951 40.4287C43.9951 39.5559 45.2854 25.81 45.2854 25.81L54.6057 19.7507C56.3398 21.5008 58.568 22.4008 60.9976 22.4008C63.4226 22.4008 65.6554 21.4962 67.3896 19.7507L76.7098 25.81C76.7098 25.81 78.0001 39.5559 78.0001 40.4287" stroke="#325BEC" stroke-width="1.5" stroke-miterlimit="10" stroke-linecap="round"/>
<path d="M71.7268 33.0283H66.4238" stroke="#325BEC" stroke-width="1.5" stroke-miterlimit="10" stroke-linecap="round"/>
<path d="M71.7268 35.374H66.4238" stroke="#325BEC" stroke-width="1.5" stroke-miterlimit="10" stroke-linecap="round"/>
<path d="M54.0656 9.02752C54.0656 9.02752 53.9741 10.1458 54.8251 11.2276C55.5709 12.1731 56.8841 12.4822 57.9959 12.0094C58.815 11.664 59.9497 11.2867 61.002 11.2867H60.9975C62.0453 11.2867 63.18 11.664 64.0036 12.0094C65.1154 12.4776 66.4331 12.1731 67.1744 11.2276C68.0254 10.1458 67.9339 9.02752 67.9339 9.02752L67.9385 7.99569C67.9385 6.1229 67.2476 4.29101 65.8978 2.98188C64.635 1.75456 62.91 1 61.002 1C59.0941 1 57.3691 1.75456 56.1063 2.98188C54.7611 4.29101 54.0656 6.1229 54.0656 7.99569V8.70025C54.1251 8.70935 56.7102 8.95936 61.2857 8.84572" stroke="#325BEC" stroke-width="1.5" stroke-miterlimit="10" stroke-linecap="round"/>
<path d="M32.5635 15.7036V16.7991C32.5635 21.3674 35.7572 25.0766 39.4999 25.0766C43.2472 25.0766 46.4363 21.372 46.4363 16.8036V15.7309" fill="#F6F7F9"/>
<path d="M32.5635 15.7036V16.7991C32.5635 21.3674 35.7572 25.0766 39.4999 25.0766C43.2472 25.0766 46.4363 21.372 46.4363 16.8036V15.7309" stroke="#325BEC" stroke-width="1.5" stroke-miterlimit="10" stroke-linecap="round"/>
<path d="M32.5681 15.5991C32.5681 15.5991 32.4765 16.7173 33.3276 17.7991C34.0734 18.7446 35.3865 19.0537 36.4984 18.581C37.3174 18.2355 38.4521 17.8582 39.5045 17.8582H39.4999C40.5477 17.8582 41.6824 18.2355 42.506 18.581C43.6178 19.0492 44.9356 18.7446 45.6768 17.7991C46.5278 16.7173 46.4363 15.5991 46.4363 15.5991L46.4409 14.5672C46.4409 12.6944 45.75 10.8625 44.4002 9.55341C43.1374 8.3261 41.4125 7.57153 39.5045 7.57153C37.5965 7.57153 35.8716 8.3261 34.6087 9.55341C33.2635 10.8625 32.5681 12.6944 32.5681 14.5672V15.2718C32.6275 15.2809 35.2127 15.5309 39.7882 15.4173" fill="#F6F7F9"/>
<path d="M32.5681 15.5991C32.5681 15.5991 32.4765 16.7173 33.3276 17.7991C34.0734 18.7446 35.3865 19.0537 36.4984 18.581C37.3174 18.2355 38.4521 17.8582 39.5045 17.8582H39.4999C40.5477 17.8582 41.6824 18.2355 42.506 18.581C43.6178 19.0492 44.9356 18.7446 45.6768 17.7991C46.5278 16.7173 46.4363 15.5991 46.4363 15.5991L46.4409 14.5672C46.4409 12.6944 45.75 10.8625 44.4002 9.55341C43.1374 8.3261 41.4125 7.57153 39.5045 7.57153C37.5965 7.57153 35.8716 8.3261 34.6087 9.55341C33.2635 10.8625 32.5681 12.6944 32.5681 14.5672V15.2718C32.6275 15.2809 35.2127 15.5309 39.7882 15.4173" stroke="#325BEC" stroke-width="1.5" stroke-miterlimit="10" stroke-linecap="round"/>
<path d="M22.4976 47.0002C22.4976 46.1275 23.7878 32.3816 23.7878 32.3816L33.1081 26.3223C34.8422 28.0723 37.0705 28.9724 39.5 28.9724C41.9251 28.9724 44.1579 28.0678 45.892 26.3223L55.2122 32.3816C55.2122 32.3816 56.5025 46.1275 56.5025 47.0002" fill="#F6F7F9"/>
<path d="M22.4976 47.0002C22.4976 46.1275 23.7878 32.3816 23.7878 32.3816L33.1081 26.3223C34.8422 28.0723 37.0705 28.9724 39.5 28.9724C41.9251 28.9724 44.1579 28.0678 45.892 26.3223L55.2122 32.3816C55.2122 32.3816 56.5025 46.1275 56.5025 47.0002H22.4976Z" stroke="#325BEC" stroke-width="1.5" stroke-miterlimit="10" stroke-linecap="round"/>
<path d="M28.7295 29.1677V35.7134V47.0001H39.5002H39.459H50.2297V35.7134V29.1677" stroke="#325BEC" stroke-width="1.5" stroke-miterlimit="10" stroke-linecap="round"/>
<path d="M45.9379 26.3223V30.7315C45.9379 33.6952 43.5175 36.0999 40.5342 36.0999H39.5048H38.4295C35.4463 36.0999 33.0259 33.6952 33.0259 30.7315V26.3223" stroke="#325BEC" stroke-width="1.5" stroke-miterlimit="10" stroke-linecap="round"/>
<path d="M32.5635 15.7036V16.7991C32.5635 21.3674 35.7572 25.0766 39.4999 25.0766C43.2472 25.0766 46.4363 21.372 46.4363 16.8036V15.7309" stroke="#325BEC" stroke-width="1.5" stroke-miterlimit="10" stroke-linecap="round"/>
<path d="M22.4976 47.0002C22.4976 46.1275 23.7878 32.3816 23.7878 32.3816L33.1081 26.3223C34.8422 28.0723 37.0705 28.9724 39.5 28.9724C41.9251 28.9724 44.1579 28.0678 45.892 26.3223L55.2122 32.3816C55.2122 32.3816 56.5025 46.1275 56.5025 47.0002" stroke="#325BEC" stroke-width="1.5" stroke-miterlimit="10" stroke-linecap="round"/>
<path d="M50.2295 39.5999H44.9265" stroke="#325BEC" stroke-width="1.5" stroke-miterlimit="10" stroke-linecap="round"/>
<path d="M50.2295 41.9456H44.9265" stroke="#325BEC" stroke-width="1.5" stroke-miterlimit="10" stroke-linecap="round"/>
<path d="M28.7295 39.5999H34.0325" stroke="#325BEC" stroke-width="1.5" stroke-miterlimit="10" stroke-linecap="round"/>
<path d="M28.7295 41.9456H34.0325" stroke="#325BEC" stroke-width="1.5" stroke-miterlimit="10" stroke-linecap="round"/>
<path d="M32.5681 15.5991C32.5681 15.5991 32.4765 16.7173 33.3276 17.7991C34.0734 18.7446 35.3865 19.0537 36.4984 18.581C37.3174 18.2355 38.4521 17.8582 39.5045 17.8582H39.4999C40.5477 17.8582 41.6824 18.2355 42.506 18.581C43.6178 19.0492 44.9356 18.7446 45.6768 17.7991C46.5278 16.7173 46.4363 15.5991 46.4363 15.5991L46.4409 14.5672C46.4409 12.6944 45.75 10.8625 44.4002 9.55341C43.1374 8.3261 41.4125 7.57153 39.5045 7.57153C37.5965 7.57153 35.8716 8.3261 34.6087 9.55341C33.2635 10.8625 32.5681 12.6944 32.5681 14.5672V15.2718C32.6275 15.2809 35.2127 15.5309 39.7882 15.4173" stroke="#325BEC" stroke-width="1.5" stroke-miterlimit="10" stroke-linecap="round"/>
</svg>
