<svg width="64" height="48" viewBox="0 0 64 48" fill="none" xmlns="http://www.w3.org/2000/svg">
<path d="M34.3142 31.988H40.0764H52.2514" stroke="#325BEC" stroke-width="1.5" stroke-miterlimit="10" stroke-linecap="round"/>
<path d="M25.1944 2.02673L23.7266 3.49461L23.0811 2.84917C21.3946 1.16267 18.6619 1.16267 16.9754 2.84917L16.3299 3.49461L14.862 2.02673C13.4983 0.662962 11.2861 0.662962 9.92229 2.02673L8.10046 3.84856L13.1704 8.7623H20.0308H26.8914L31.9612 3.84856L30.1394 2.02673C28.7704 0.657756 26.5582 0.657756 25.1944 2.02673Z" stroke="#325BEC" stroke-width="1.5" stroke-miterlimit="10" stroke-linecap="round"/>
<path d="M51.3089 42.8826V45.0949C51.3089 46.1463 52.1626 47 53.214 47H54.2759C55.3274 47 56.181 46.1463 56.181 45.0949V35.1217L58.1382 34.4085C58.3204 34.3409 58.4401 34.1691 58.4401 33.9713V32.4149C58.4401 32.1599 58.2319 31.9517 57.9768 31.9517H55.7698C55.14 31.9517 54.5622 31.6081 54.2603 31.0564L52.0585 27.0223C51.6265 26.2311 50.7988 25.7418 49.8983 25.7418H43.2773H36.6562C35.7557 25.7418 34.9281 26.2311 34.4961 27.0223L32.2942 31.0564C31.9923 31.6081 31.4146 31.9517 30.7847 31.9517H28.5777C28.3227 31.9517 28.1144 32.1599 28.1144 32.4149V33.9713C28.1144 34.1639 28.2342 34.3409 28.4164 34.4085L30.3735 35.1217V45.0949C30.3735 46.1463 31.2272 47 32.2786 47H33.3405C34.3919 47 35.2456 46.1463 35.2456 45.0949V42.8826H51.3089Z" stroke="#325BEC" stroke-width="1.5" stroke-miterlimit="10" stroke-linecap="round"/>
<path d="M32.4766 39.265H37.026V38.4634C37.026 37.6566 36.4378 36.9747 35.6414 36.8602L32.6536 36.423" stroke="#325BEC" stroke-width="1.5" stroke-miterlimit="10" stroke-linecap="round"/>
<path d="M53.9117 36.423L50.9239 36.8602C50.1275 36.9747 49.5393 37.6566 49.5393 38.4634V39.265H54.0887" stroke="#325BEC" stroke-width="1.5" stroke-miterlimit="10" stroke-linecap="round"/>
<path d="M39.9565 39.3328H46.6036" stroke="#325BEC" stroke-width="1.5" stroke-miterlimit="10" stroke-linecap="round"/>
<path d="M46.6037 39.3328L46.9108 36.7041H43.2827H39.6547L39.9566 39.3328" stroke="#325BEC" stroke-width="1.5" stroke-miterlimit="10" stroke-linecap="round"/>
<path d="M35.2511 42.8826H33.2575" stroke="#325BEC" stroke-width="1.5" stroke-miterlimit="10" stroke-linecap="round"/>
<path d="M51.309 42.8826H53.8752" stroke="#325BEC" stroke-width="1.5" stroke-miterlimit="10" stroke-linecap="round"/>
<path d="M35.2511 42.8826H32.6849" stroke="#325BEC" stroke-width="1.5" stroke-miterlimit="10" stroke-linecap="round"/>
<path d="M32.6848 46.9948C32.6848 46.9948 26.2252 46.9948 19.9372 46.9948C4.12897 46.9948 0.948572 39.3275 1.00062 33.0291C1.03186 29.0628 2.41646 25.2213 4.78483 22.0357L12.3949 11.8022H19.9425H27.49" stroke="#325BEC" stroke-width="1.5" stroke-miterlimit="10" stroke-linecap="round"/>
<path d="M37.5675 25.7366C36.9845 24.4353 36.2558 23.1913 35.3969 22.0357L27.7869 11.8022" stroke="#325BEC" stroke-width="1.5" stroke-miterlimit="10" stroke-linecap="round"/>
<path d="M27.8178 8.76257H12.0616C11.3641 8.76257 10.7915 9.33515 10.7915 10.0327V10.5376C10.7915 11.2351 11.3641 11.8077 12.0616 11.8077H27.8178C28.5153 11.8077 29.0879 11.2351 29.0879 10.5376V10.0327C29.0879 9.33515 28.5153 8.76257 27.8178 8.76257Z" stroke="#325BEC" stroke-width="1.5" stroke-miterlimit="10" stroke-linecap="round"/>
<path d="M25.1944 2.02673L23.7266 3.49461L23.0811 2.84917C21.3946 1.16267 18.6619 1.16267 16.9754 2.84917L16.3299 3.49461L14.862 2.02673C13.4983 0.662962 11.2861 0.662962 9.92229 2.02673L8.10046 3.84856L13.1704 8.7623H20.0308H26.8914L31.9612 3.84856L30.1394 2.02673C28.7704 0.657756 26.5582 0.657756 25.1944 2.02673Z" stroke="#325BEC" stroke-width="1.5" stroke-miterlimit="10" stroke-linecap="round"/>
<path d="M28.5555 15.8992C28.7052 15.4385 29.3569 15.4385 29.5065 15.8992L30.2658 18.2361C30.3328 18.4421 30.5247 18.5816 30.7414 18.5816H33.1985C33.6829 18.5816 33.8843 19.2014 33.4924 19.4861L31.5045 20.9303C31.3293 21.0577 31.256 21.2834 31.3229 21.4894L32.0822 23.8262C32.2319 24.2869 31.7046 24.67 31.3128 24.3853L29.3249 22.941C29.1497 22.8137 28.9124 22.8137 28.7371 22.941L26.7492 24.3853C26.3574 24.67 25.8301 24.2869 25.9798 23.8262L26.7391 21.4894C26.8061 21.2834 26.7327 21.0577 26.5575 20.9303L24.5696 19.4861C24.1778 19.2014 24.3791 18.5816 24.8635 18.5816H27.3207C27.5373 18.5816 27.7292 18.4421 27.7962 18.2361L28.5555 15.8992Z" fill="#F6F7F9" stroke="#325BEC" stroke-width="1.5"/>
<path d="M42.5555 12.8992C42.7052 12.4385 43.3569 12.4385 43.5065 12.8992L44.2658 15.2361C44.3328 15.4421 44.5247 15.5816 44.7414 15.5816H47.1985C47.6829 15.5816 47.8843 16.2014 47.4924 16.4861L45.5045 17.9303C45.3293 18.0577 45.256 18.2834 45.3229 18.4894L46.0822 20.8262C46.2319 21.2869 45.7046 21.67 45.3128 21.3853L43.3249 19.941C43.1497 19.8137 42.9124 19.8137 42.7371 19.941L40.7492 21.3853C40.3574 21.67 39.8301 21.2869 39.9798 20.8262L40.7391 18.4894C40.8061 18.2834 40.7327 18.0577 40.5575 17.9303L38.5696 16.4861C38.1778 16.2014 38.3791 15.5816 38.8635 15.5816H41.3207C41.5373 15.5816 41.7292 15.4421 41.7962 15.2361L42.5555 12.8992Z" fill="#F6F7F9" stroke="#325BEC" stroke-width="1.5"/>
<path d="M56.5555 15.8992C56.7052 15.4385 57.3569 15.4385 57.5065 15.8992L58.2658 18.2361C58.3328 18.4421 58.5247 18.5816 58.7414 18.5816H61.1985C61.6829 18.5816 61.8843 19.2014 61.4924 19.4861L59.5045 20.9303C59.3293 21.0577 59.256 21.2834 59.3229 21.4894L60.0822 23.8262C60.2319 24.2869 59.7046 24.67 59.3128 24.3853L57.3249 22.941C57.1497 22.8137 56.9124 22.8137 56.7371 22.941L54.7492 24.3853C54.3574 24.67 53.8301 24.2869 53.9798 23.8262L54.7391 21.4894C54.8061 21.2834 54.7327 21.0577 54.5575 20.9303L52.5696 19.4861C52.1778 19.2014 52.3791 18.5816 52.8635 18.5816H55.3207C55.5373 18.5816 55.7292 18.4421 55.7962 18.2361L56.5555 15.8992Z" fill="#F6F7F9" stroke="#325BEC" stroke-width="1.5"/>
<path d="M13.7477 39V36.1972H12V35.3121H13.7477V33.4128H12V32.5277H13.7477V26H17.8198C19.1411 26 20.1682 26.3319 20.9009 26.9957C21.6336 27.6473 22 28.5693 22 29.7617C22 30.4993 21.8318 31.1447 21.4955 31.6979C21.1592 32.2388 20.6847 32.6629 20.0721 32.9702C19.4715 33.2652 18.7748 33.4128 17.982 33.4128H14.8829V35.3121H18.1622V36.1972H14.8829V39H13.7477ZM14.8649 32.5277H17.8018C18.8108 32.5277 19.5796 32.2941 20.1081 31.827C20.6366 31.3598 20.9009 30.6714 20.9009 29.7617C20.9009 27.93 19.8619 27.0142 17.7838 27.0142H14.8649V32.5277Z" fill="#325BEC"/>
</svg>
