<svg width="71" height="48" viewBox="0 0 71 48" fill="none" xmlns="http://www.w3.org/2000/svg">
<path d="M8.80603 30.1812H16.949V28.7516C16.949 27.3111 15.8944 26.088 14.4648 25.8815L8.80603 25.1041" stroke="#325BEC" stroke-width="1.5" stroke-miterlimit="10" stroke-linecap="round"/>
<path d="M42.5192 36.6607V38.5687C42.5192 40.4496 44.0467 41.977 45.9275 41.977H47.8355C49.7163 41.977 51.2438 40.4496 51.2438 38.5687V22.7666L54.7445 21.4892C55.0707 21.3696 55.2881 21.0598 55.2881 20.7119V17.9178C55.2881 17.4612 54.9185 17.0862 54.4564 17.0862H50.5045C49.3793 17.0862 48.341 16.4719 47.8029 15.4826L43.8619 8.25829C43.09 6.84497 41.6114 5.96436 39.997 5.96436H28.1468H16.2911C14.6821 5.96436 13.1981 6.84497 12.4262 8.25829L8.4852 15.4826C7.94705 16.4719 6.9088 17.0862 5.78357 17.0862H1.83169C1.37508 17.0862 1 17.4558 1 17.9178V20.7065C1 21.0543 1.21744 21.3642 1.54359 21.4838L5.04429 22.7612V38.5633C5.04429 40.4441 6.57177 41.9716 8.45259 41.9716H10.3606C12.2414 41.9716 13.7689 40.4441 13.7689 38.5633V36.6553H42.5192V36.6607Z" stroke="#325BEC" stroke-width="1.5" stroke-miterlimit="10" stroke-linecap="round"/>
<path d="M23.5752 17.157H43.9597L40.2796 10.4056C40.0676 10.0197 39.6654 9.78052 39.2196 9.78052H28.1468H17.0685C16.6281 9.78052 16.2205 10.0197 16.0085 10.4056L12.3284 17.157H23.5752Z" stroke="#325BEC" stroke-width="1.5" stroke-miterlimit="10" stroke-linecap="round"/>
<path d="M47.4879 25.0989L41.8292 25.8762C40.405 26.0828 39.345 27.3058 39.345 28.7463V30.176H47.4879" stroke="#325BEC" stroke-width="1.5" stroke-miterlimit="10" stroke-linecap="round"/>
<path d="M22.1947 30.3119H34.0938" stroke="#325BEC" stroke-width="1.5" stroke-miterlimit="10" stroke-linecap="round"/>
<path d="M34.0937 30.312L34.6373 25.5991H28.1469H21.651L22.1946 30.312" stroke="#325BEC" stroke-width="1.5" stroke-miterlimit="10" stroke-linecap="round"/>
<path d="M13.7688 36.6606H10.2029" stroke="#325BEC" stroke-width="1.5" stroke-miterlimit="10" stroke-linecap="round"/>
<path d="M42.5192 36.6606H46.0905" stroke="#325BEC" stroke-width="1.5" stroke-miterlimit="10" stroke-linecap="round"/>
<path d="M48.9535 5.65295H41.3837C40.0663 5.65295 39 6.71924 39 8.03667V44.6164C39 45.9338 40.0663 47.0001 41.3837 47.0001H66.8908C68.2082 47.0001 69.2745 45.9338 69.2745 44.6164V8.04108C69.2745 6.72364 68.2082 5.65736 66.8908 5.65736H58.9686" fill="#F6F7F9"/>
<path d="M48.9535 5.65295H41.3837C40.0663 5.65295 39 6.71924 39 8.03667V44.6164C39 45.9338 40.0663 47.0001 41.3837 47.0001H66.8908C68.2082 47.0001 69.2745 45.9338 69.2745 44.6164V8.04108C69.2745 6.72364 68.2082 5.65736 66.8908 5.65736H58.9686" stroke="#F6F7F9" stroke-width="1.5" stroke-miterlimit="10" stroke-linecap="round"/>
<path d="M56.5803 3.5908V3.4454C56.5803 2.09713 55.4876 1 54.1349 1C52.7866 1 51.6895 2.09272 51.6895 3.4454V3.5908" stroke="#325BEC" stroke-width="1.5" stroke-miterlimit="10" stroke-linecap="round"/>
<path d="M48.9534 4.27365V9.42442C48.9534 9.9135 49.3499 10.3056 49.8346 10.3056H50.1871C50.6277 10.3056 51.0022 9.97518 51.0595 9.53897L51.0727 9.42882C51.2754 7.89108 52.584 6.74108 54.1306 6.74108C55.6815 6.74108 56.9902 7.89108 57.1884 9.42882L57.2016 9.53897C57.2589 9.97959 57.6335 10.3056 58.0741 10.3056C58.5631 10.3056 58.9553 9.90909 58.9553 9.42442V4.27365C58.9553 3.89913 58.6512 3.5907 58.2723 3.5907H49.6187C49.2574 3.5907 48.9534 3.89472 48.9534 4.27365Z" stroke="#325BEC" stroke-width="1.5" stroke-miterlimit="10" stroke-linecap="round"/>
<path d="M48.9535 5.65295H41.3837C40.0663 5.65295 39 6.71924 39 8.03667V44.6164C39 45.9338 40.0663 47.0001 41.3837 47.0001H66.8908C68.2082 47.0001 69.2745 45.9338 69.2745 44.6164V8.04108C69.2745 6.72364 68.2082 5.65736 66.8908 5.65736H58.9686" stroke="#325BEC" stroke-width="1.5" stroke-miterlimit="10" stroke-linecap="round"/>
<path d="M42.5337 9.18628V43.4704H59.3783L65.7408 37.1079V9.18628" stroke="#325BEC" stroke-width="1.5" stroke-miterlimit="10" stroke-linecap="round"/>
<path d="M51.4295 23.7838L48.6228 26.7535L47.2701 25.3965" stroke="#325BEC" stroke-width="1.5" stroke-miterlimit="10" stroke-linecap="round"/>
<path d="M51.4295 31.6667L48.6228 34.6365L47.2701 33.2794" stroke="#325BEC" stroke-width="1.5" stroke-miterlimit="10" stroke-linecap="round"/>
<path d="M51.4295 16.3333L48.6228 19.303L47.2701 17.9459" stroke="#325BEC" stroke-width="1.5" stroke-miterlimit="10" stroke-linecap="round"/>
<path d="M53.1349 18.4921H62.8108" stroke="#325BEC" stroke-width="1.5" stroke-miterlimit="10" stroke-linecap="round"/>
<path d="M53.1349 26.9476H62.8108" stroke="#325BEC" stroke-width="1.5" stroke-miterlimit="10" stroke-linecap="round"/>
</svg>
