<svg width="22" height="22" viewBox="0 0 22 22" fill="none" xmlns="http://www.w3.org/2000/svg">
<path d="M3.02402 1.98004V5.14804C3.02402 5.44628 3.26579 5.68804 3.56402 5.68804C3.86226 5.68804 4.10402 5.44628 4.10402 5.14804V1.98004C4.10402 1.6818 3.86226 1.44004 3.56402 1.44004C3.26579 1.44004 3.02402 1.6818 3.02402 1.98004Z" fill="#325BEC" stroke="#325BEC" stroke-width="0.2"/>
<path d="M1.98004 4.10402H5.14804C5.44628 4.10402 5.68804 3.86226 5.68804 3.56402C5.68804 3.26579 5.44628 3.02402 5.14804 3.02402H1.98004C1.6818 3.02402 1.44004 3.26579 1.44004 3.56402C1.44004 3.86226 1.6818 4.10402 1.98004 4.10402ZM17.8725 8.51667V11.6847C17.8725 11.9829 18.1142 12.2247 18.4125 12.2247C18.7107 12.2247 18.9525 11.9829 18.9525 11.6847V8.51667C18.9525 8.21843 18.7107 7.97667 18.4125 7.97667C18.1142 7.97667 17.8725 8.21843 17.8725 8.51667Z" fill="#325BEC" stroke="#325BEC" stroke-width="0.2"/>
<path d="M16.8283 10.6407H19.9963C20.2945 10.6407 20.5363 10.3989 20.5363 10.1007C20.5363 9.80247 20.2945 9.56071 19.9963 9.56071H16.8283C16.53 9.56071 16.2883 9.80247 16.2883 10.1007C16.2883 10.3989 16.53 10.6407 16.8283 10.6407ZM5.13584 5.78497V7.98716C5.13584 8.2854 5.3776 8.52716 5.67584 8.52716C5.97408 8.52716 6.21584 8.2854 6.21584 7.98716V5.78497C6.21584 5.48673 5.97408 5.24497 5.67584 5.24497C5.3776 5.24497 5.13584 5.48673 5.13584 5.78497Z" fill="#325BEC" stroke="#325BEC" stroke-width="0.2"/>
<path d="M10.3081 9.29758L10.3081 9.29758L9.10605 6.93196C9.10605 6.93196 9.10605 6.93196 9.10605 6.93195C9.06547 6.85208 9.12354 6.75759 9.21292 6.75759H12.8266C12.9163 6.75759 12.9743 6.85213 12.9337 6.93198L11.7316 9.2976C11.5965 9.56348 11.7026 9.88854 11.9684 10.0236C12.2343 10.1588 12.5594 10.0527 12.6945 9.78687L13.8965 7.4212L13.8966 7.42119C14.3022 6.62277 13.7221 5.67759 12.8266 5.67759H9.21292C8.31756 5.67759 7.73767 6.62286 8.1432 7.42115L8.1432 7.42115L9.34529 9.78684C9.4804 10.0527 9.80546 10.1587 10.0713 10.0236C10.3372 9.88851 10.4432 9.56346 10.3081 9.29758ZM4.57477 7.4261H6.77696C7.0752 7.4261 7.31696 7.18433 7.31696 6.8861C7.31696 6.58786 7.07519 6.3461 6.77696 6.3461H4.57477C4.27653 6.3461 4.03477 6.58786 4.03477 6.8861C4.03477 7.18433 4.27653 7.4261 4.57477 7.4261Z" fill="#325BEC" stroke="#325BEC" stroke-width="0.2"/>
<path d="M17.3447 16.6466C17.3447 18.1753 16.1056 19.4143 14.577 19.4143H7.46349C5.93485 19.4143 4.6958 18.1753 4.6958 16.6466V15.8003C4.6958 12.7329 7.20759 10.221 10.2749 10.221H11.7654C14.8327 10.221 17.3447 12.7329 17.3447 15.8003V16.6466ZM7.46351 20.4943H14.577C16.7021 20.4943 18.4247 18.7717 18.4247 16.6466V15.8003C18.4247 12.1365 15.4292 9.14097 11.7654 9.14097H10.2749C6.61115 9.14097 3.61582 12.1364 3.61582 15.8003V16.6466C3.61582 18.7717 5.33839 20.4943 7.46351 20.4943Z" fill="#325BEC" stroke="#325BEC" stroke-width="0.2"/>
</svg>
