<svg width="26" height="26" viewBox="0 0 26 26" fill="none" xmlns="http://www.w3.org/2000/svg">
<path d="M4.13416 14.5676C4.13416 20.3302 8.80576 25.0001 14.5671 25.0001C20.3284 25.0001 25 20.3275 25 14.5676C25 8.80499 20.3284 4.13232 14.5671 4.13232" stroke="#325BEC" stroke-miterlimit="10" stroke-linecap="round"/>
<path d="M14.5671 1V6.35252C10.0303 6.35252 6.35131 10.0297 6.35131 14.5701H1C1 7.07284 7.07417 1 14.5671 1Z" stroke="#325BEC" stroke-miterlimit="10" stroke-linecap="round"/>
<path d="M19.6248 16.7317C20.8218 13.9377 19.5278 10.7022 16.7344 9.50489C13.9411 8.30761 10.7063 9.60197 9.5093 12.3959C8.31229 15.1899 9.60636 18.4254 12.3997 19.6227C15.193 20.82 18.4278 19.5256 19.6248 16.7317Z" stroke="#325BEC" stroke-miterlimit="10" stroke-linecap="round"/>
<path d="M16.5153 14.5675C16.5153 13.491 15.6439 12.6169 14.5675 12.6169C13.491 12.6169 12.6169 13.4883 12.6169 14.5675C12.6169 15.6439 13.4883 16.5153 14.5675 16.5153C15.6439 16.518 16.5153 15.6439 16.5153 14.5675Z" stroke="#325BEC" stroke-miterlimit="10" stroke-linecap="round"/>
<path d="M14.5671 11.2409V10.553" stroke="#325BEC" stroke-miterlimit="10" stroke-linecap="round"/>
<path d="M12.2152 12.2149L11.7296 11.7292" stroke="#325BEC" stroke-miterlimit="10" stroke-linecap="round"/>
<path d="M11.2415 14.5674H10.5536" stroke="#325BEC" stroke-miterlimit="10" stroke-linecap="round"/>
<path d="M12.2152 16.9199L11.7296 17.4055" stroke="#325BEC" stroke-miterlimit="10" stroke-linecap="round"/>
<path d="M14.5671 17.894V18.582" stroke="#325BEC" stroke-miterlimit="10" stroke-linecap="round"/>
<path d="M16.9164 16.9199L17.4047 17.4055" stroke="#325BEC" stroke-miterlimit="10" stroke-linecap="round"/>
<path d="M17.89 14.5674H18.578" stroke="#325BEC" stroke-miterlimit="10" stroke-linecap="round"/>
<path d="M16.9164 12.2149L17.4047 11.7292" stroke="#325BEC" stroke-miterlimit="10" stroke-linecap="round"/>
<path d="M4.15845 11.7778L4.82212 11.9559" stroke="#325BEC" stroke-miterlimit="10" stroke-linecap="round"/>
<path d="M5.23462 9.17725L5.83084 9.52257" stroke="#325BEC" stroke-miterlimit="10" stroke-linecap="round"/>
<path d="M6.94739 6.94604L7.433 7.43166" stroke="#325BEC" stroke-miterlimit="10" stroke-linecap="round"/>
<path d="M9.17798 5.23267L9.5233 5.82889" stroke="#325BEC" stroke-miterlimit="10" stroke-linecap="round"/>
<path d="M11.7781 4.15649L11.9561 4.82016" stroke="#325BEC" stroke-miterlimit="10" stroke-linecap="round"/>
</svg>
