<svg width="26" height="26" viewBox="0 0 26 26" fill="none" xmlns="http://www.w3.org/2000/svg">
<path d="M19.8198 14.6875C18.5135 14.7861 17.0668 14.263 16.185 13.8655C16.2597 13.5875 16.3046 13.2975 16.3046 12.9986C16.3046 12.8043 16.2836 12.613 16.2507 12.4247C17.4912 12.332 18.3342 12.2782 19.1353 12.072C20.0799 11.8269 20.3638 10.5744 19.9454 9.69559C19.5717 8.90645 19.0486 8.24585 18.657 7.81242C18.4239 7.55535 18.0203 7.6271 17.8709 7.93797C17.3029 9.11869 16.1282 10.1081 15.342 10.676C15.0013 10.3323 14.5888 10.0692 14.1255 9.89886C14.6665 8.77792 15.0401 8.02166 15.2613 7.22356C15.5214 6.28496 14.5798 5.41213 13.6083 5.33142C12.7385 5.25968 11.9045 5.38223 11.3336 5.50479C10.9958 5.57653 10.8553 5.96213 11.0496 6.2461C11.7879 7.32818 12.057 8.8407 12.1556 9.8062C11.6773 9.93174 11.2409 10.1589 10.8732 10.4698C10.1738 9.44151 9.70448 8.73906 9.12458 8.14721C8.44006 7.45073 7.21451 7.83334 6.65852 8.63444C6.16232 9.35184 5.85145 10.138 5.6721 10.691C5.56748 11.0198 5.83052 11.3337 6.17428 11.3068C7.48054 11.2081 8.92729 11.7312 9.8091 12.1288C9.73437 12.4068 9.68953 12.6967 9.68953 12.9956C9.68953 13.1899 9.71045 13.3812 9.74334 13.5696C8.50283 13.6592 7.65989 13.716 6.85879 13.9223C5.91422 14.1674 5.63025 15.4198 6.04873 16.2987C6.42237 17.0878 6.94548 17.7484 7.33706 18.1818C7.57022 18.4389 7.97375 18.3672 8.12321 18.0563C8.69115 16.8756 9.86589 15.8861 10.652 15.3182C10.9928 15.662 11.4053 15.925 11.8686 16.0954C11.3276 17.2163 10.954 17.9726 10.7328 18.7707C10.4727 19.7093 11.4143 20.5821 12.3858 20.6628C13.2556 20.7346 14.0896 20.612 14.6605 20.4895C14.9983 20.4177 15.1388 20.0321 14.9445 19.7481C14.2062 18.6661 13.9371 17.1536 13.8385 16.1881C14.3168 16.0625 14.7532 15.8353 15.1208 15.5245C15.8203 16.5527 16.2896 17.2552 16.8695 17.847C17.554 18.5435 18.7796 18.1609 19.3356 17.3598C19.8318 16.6424 20.1426 15.8563 20.322 15.3033C20.4266 14.9774 20.1636 14.6636 19.8198 14.6875ZM14.6605 12.9986C14.6605 13.0076 14.6605 13.0136 14.6605 13.0225C14.6515 13.8027 14.1015 14.4513 13.3722 14.6187C13.2526 14.6456 13.1301 14.6606 13.0015 14.6606C12.8401 14.6606 12.6847 14.6367 12.5352 14.5918C12.0031 14.4364 11.5787 14.0209 11.4143 13.4918C11.3665 13.3364 11.3396 13.169 11.3396 12.9986C11.3396 12.8402 11.3635 12.6848 11.4053 12.5383C11.5847 11.9165 12.1167 11.4443 12.7714 11.3546C12.8461 11.3456 12.9208 11.3366 12.9985 11.3366C13.0553 11.3366 13.1121 11.3396 13.1689 11.3456C14.0059 11.4323 14.6605 12.1407 14.6605 12.9986Z" stroke="#325BEC" stroke-miterlimit="10" stroke-linecap="round"/>
<path d="M12.9985 22.8868C18.4596 22.8868 22.8867 18.4598 22.8867 12.9987C22.8867 7.53762 18.4596 3.11053 12.9985 3.11053C7.53743 3.11053 3.11035 7.53762 3.11035 12.9987C3.11035 18.4598 7.53743 22.8868 12.9985 22.8868Z" stroke="#325BEC" stroke-miterlimit="10" stroke-linecap="round"/>
<path d="M22.6535 1H3.3465C2.05219 1 1 2.0492 1 3.3465V22.6535C1 23.9478 2.0492 25 3.3465 25H22.6535C23.9478 25 25 23.9508 25 22.6535V3.3465C25 2.0492 23.9478 1 22.6535 1Z" stroke="#325BEC" stroke-miterlimit="10" stroke-linecap="round"/>
<path d="M3.46009 3.46027L1.59186 1.59204" stroke="#325BEC" stroke-miterlimit="10" stroke-linecap="round"/>
<path d="M3.47803 22.5221L1.6098 24.3903" stroke="#325BEC" stroke-miterlimit="10" stroke-linecap="round"/>
<path d="M22.5549 3.44525L24.4201 1.57703" stroke="#325BEC" stroke-miterlimit="10" stroke-linecap="round"/>
<path d="M22.5429 22.5431L24.4111 24.4113" stroke="#325BEC" stroke-miterlimit="10" stroke-linecap="round"/>
</svg>
