<svg width="27" height="22" viewBox="0 0 27 22" fill="none" xmlns="http://www.w3.org/2000/svg">
<path d="M2.36577 7.76174C2.38059 7.73463 2.39817 7.70912 2.41823 7.68562C2.43987 7.65827 2.46555 7.63438 2.49438 7.61477L2.49476 7.61451C2.49741 7.61275 2.5044 7.6068 2.51299 7.59878L2.52268 7.58954L2.52557 7.5867L2.52632 7.58596L2.52649 7.58579L2.52652 7.58576L2.53536 7.57692L2.53615 7.57824L13.4736 1.01574L13.4744 1.01531L13.4744 1.01531C13.5485 0.972526 13.6326 0.95 13.7181 0.95C13.8037 0.95 13.8878 0.972526 13.9619 1.01531L13.9626 1.01573L13.9626 1.01574L24.8988 7.57744C24.9145 7.5858 24.9283 7.59888 24.936 7.60654C24.9406 7.61118 24.9445 7.61543 24.9473 7.61854L24.9474 7.61859C24.9743 7.63766 24.9983 7.66052 25.0187 7.68647L25.0197 7.68778L25.0197 7.6878L25.0678 7.75342L25.0713 7.75811L25.071 7.75828C25.0868 7.78618 25.0999 7.81557 25.11 7.84603L25.1137 7.85738L25.1123 7.8575L2.36577 7.76174ZM2.36577 7.76174C2.34865 7.7882 2.33526 7.81689 2.32597 7.847L2.32485 7.84666L2.32393 7.8575C2.32199 7.88032 2.32143 7.90323 2.32227 7.9261L2.28161 7.95805L2.2625 7.97306V7.99736V20.6349M2.36577 7.76174L2.2625 20.6349M2.2625 20.6349H1.4375C1.30821 20.6349 1.18421 20.6862 1.09279 20.7776C1.00136 20.8691 0.95 20.9931 0.95 21.1224C0.95 21.2517 1.00136 21.3757 1.09279 21.4671C1.18421 21.5585 1.30821 21.6099 1.4375 21.6099H25.9375C26.0668 21.6099 26.1908 21.5585 26.2822 21.4671C26.3736 21.3757 26.425 21.2517 26.425 21.1224C26.425 20.9931 26.3736 20.8691 26.2822 20.7776C26.1908 20.6862 26.0668 20.6349 25.9375 20.6349H25.1125V7.99736V7.99734V7.99732V7.99731V7.99729V7.99726V7.99724V7.99722V7.99721V7.99719V7.99718V7.99716V7.99714V7.99712V7.9971V7.99708V7.99706V7.99704V7.99702V7.99699V7.99697V7.99694V7.99692V7.99689V7.99687V7.99684V7.99681V7.99678V7.99675V7.99672V7.99669V7.99666V7.99662V7.99659V7.99656V7.99652V7.99649V7.99645V7.99642V7.99638V7.99634V7.9963V7.99626V7.99622V7.99618V7.99614V7.9961V7.99606V7.99601V7.99597V7.99593V7.99588V7.99583V7.99579V7.99574V7.99569V7.99565V7.9956V7.99555V7.9955V7.99545V7.99539V7.99534V7.99529V7.99524V7.99518V7.99513V7.99507V7.99502V7.99496V7.9949V7.99485V7.99479V7.99473V7.99467V7.99461V7.99455V7.99449V7.99443V7.99437V7.9943V7.99424V7.99418V7.99411V7.99405V7.99398V7.99392V7.99385V7.99378V7.99371V7.99365V7.99358V7.99351V7.99344V7.99337V7.9933V7.99323V7.99315V7.99308V7.99301V7.99294V7.99286V7.99279V7.99271V7.99264V7.99256V7.99248V7.99241V7.99233V7.99225V7.99217V7.99209V7.99201V7.99193V7.99185V7.99177V7.99169V7.99161V7.99153V7.99144V7.99136V7.99128V7.99119V7.99111V7.99102V7.99094V7.99085V7.99076V7.99068V7.99059V7.9905V7.99041V7.99032V7.99023V7.99015V7.99006V7.98996V7.98987V7.98978V7.98969V7.9896V7.98951V7.98941V7.98932V7.98923V7.98913V7.98904V7.98894V7.98885V7.98875V7.98865V7.98856V7.98846V7.98836V7.98827V7.98817V7.98807V7.98797V7.98787V7.98777V7.98767V7.98757V7.98747V7.98737V7.98727V7.98717V7.98706V7.98696V7.98686V7.98675V7.98665V7.98655V7.98644V7.98634V7.98623V7.98613V7.98602V7.98592V7.98581V7.9857V7.9856V7.98549V7.98538V7.98528V7.98517V7.98506V7.98495V7.98484V7.98473V7.98462V7.98451V7.9844V7.98429V7.98418V7.98407V7.98396V7.98385V7.98374V7.98362V7.98351V7.9834V7.98329V7.98317V7.98306V7.98295V7.98283V7.98272V7.9826V7.98249V7.98238V7.98226V7.98214V7.98203V7.98191V7.9818V7.98168V7.98156V7.98145V7.98133V7.98121V7.9811V7.98098V7.98086V7.98074V7.98063V7.98051V7.98039V7.98027V7.98015V7.98003V7.97991V7.97979V7.97967V7.97955V7.97943V7.97931V7.97919V7.97907V7.97895V7.97883V7.97871V7.97859V7.97847V7.97835V7.97822V7.9781V7.97798V7.97786V7.97774V7.97761V7.97749V7.97737V7.97724V7.97712V7.977V7.97688V7.97675V7.97663V7.97651V7.97638V7.97626V7.97613V7.97601V7.97589V7.97576V7.97564V7.97551V7.97539V7.97526V7.97514V7.97501V7.97489V7.97476V7.97464V7.97451V7.97439V7.97426V7.97414V7.97401V7.97389V7.97376V7.97364V7.97351V7.97339V7.97326V7.97313V7.97301V7.97288V7.97276V7.97263V7.9725V7.97238V7.97225V7.97213V7.972V7.97187V7.97175V7.97162V7.9715V7.97137V7.97124V7.97112V7.97099V7.97087V7.97074V7.97061V7.97049V7.97036V7.97023V7.97011V7.96998V7.96986V7.96973V7.9696V7.96948V7.96935V7.96923V7.9691V7.96897V7.96885V7.96872V7.9686V7.96847V7.96834V7.96822V7.96809V7.96797V7.96784V7.96772V7.96759V7.96747V7.96734V7.96722V7.96709V7.96697V7.96684V7.96672V7.96659V7.96647V7.96634V7.96622V7.96609V7.96597V7.96584V7.96572V7.9656V7.96547V7.96535V7.96522V7.9651V7.96498V7.96485V7.96473V7.96461V7.96448V7.96436V7.96424V7.96412V7.96399V7.96387V7.96375V7.96363V7.96351V7.96338V7.96326V7.96314V7.96302V7.9629V7.96278V7.96266V7.96254V7.96242V7.9623V7.96218V7.96206V7.96194V7.96182V7.9617V7.96158V7.96146V7.96134V7.96122V7.9611V7.96099V7.96087V7.96075V7.96063V7.96051V7.9604V7.96028V7.96016V7.96005V7.95993V7.95982V7.9597V7.95958V7.95947V7.95935V7.95924V7.95912V7.95901V7.9589V7.95878V7.95867V7.95855V7.95844V7.95833V7.95822V7.9581V7.95799V7.95788V7.95777V7.95766V7.95755V7.95744V7.95732V7.95721V7.9571V7.957V7.95689V7.95678V7.95667V7.95656V7.95645V7.95634V7.95624V7.95613V7.95602V7.95592V7.95581V7.9557V7.9556V7.95549V7.95539V7.95528V7.95518V7.95508V7.95497V7.95487V7.95477V7.95466V7.95456V7.95446V7.95436V7.95426V7.95416V7.95406V7.95396V7.95386V7.95376V7.95366V7.95356V7.95346V7.95336V7.95327V7.95317V7.95307V7.95298V7.95288V7.95278V7.95269V7.95259V7.9525V7.95241V7.95231V7.95222V7.95213V7.95203V7.95194V7.95185V7.95176V7.95167V7.95158V7.95149V7.9514V7.95131V7.95122V7.95114V7.95105V7.95096V7.95087V7.95079V7.9507V7.95062V7.95053V7.95045V7.95036V7.95028V7.9502V7.95011V7.95003V7.94995V7.94987V7.94979V7.94971V7.94963V7.94955V7.94947V7.94939V7.94932V7.94924L2.2625 20.6349ZM6.3 20.6349V11.1099H21.075V20.6349H6.3ZM22.05 20.6349V10.6224C22.05 10.4931 21.9986 10.3691 21.9072 10.2776C21.8158 10.1862 21.6918 10.1349 21.5625 10.1349H5.8125C5.68321 10.1349 5.55921 10.1862 5.46779 10.2776C5.37636 10.3691 5.325 10.4931 5.325 10.6224V20.6349H3.2375V8.27505L13.6875 2.00505L24.1375 8.27505V20.6349H22.05Z" fill="white" stroke="white" stroke-width="0.1"/>
<path d="M15 7.72338H12.375C12.2457 7.72338 12.1217 7.77474 12.0303 7.86616C11.9389 7.95759 11.8875 8.08158 11.8875 8.21088C11.8875 8.34017 11.9389 8.46417 12.0303 8.55559C12.1217 8.64702 12.2457 8.69838 12.375 8.69838H15C15.1293 8.69838 15.2533 8.64702 15.3447 8.55559C15.4361 8.46417 15.4875 8.34017 15.4875 8.21088C15.4875 8.08158 15.4361 7.95759 15.3447 7.86616C15.2533 7.77474 15.1293 7.72338 15 7.72338Z" fill="white" stroke="white" stroke-width="0.1"/>
<path d="M17.625 12.7599H9.75C9.62071 12.7599 9.49671 12.8112 9.40529 12.9027C9.31386 12.9941 9.2625 13.1181 9.2625 13.2474C9.2625 13.3767 9.31386 13.5007 9.40529 13.5921C9.49671 13.6835 9.62071 13.7349 9.75 13.7349H17.625C17.7543 13.7349 17.8783 13.6835 17.9697 13.5921C18.0611 13.5007 18.1125 13.3767 18.1125 13.2474C18.1125 13.1181 18.0611 12.9941 17.9697 12.9027C17.8783 12.8112 17.7543 12.7599 17.625 12.7599Z" fill="white" stroke="white" stroke-width="0.1"/>
<path d="M17.625 15.3849H9.75C9.62071 15.3849 9.49671 15.4362 9.40529 15.5277C9.31386 15.6191 9.2625 15.7431 9.2625 15.8724C9.2625 16.0017 9.31386 16.1257 9.40529 16.2171C9.49671 16.3085 9.62071 16.3599 9.75 16.3599H17.625C17.7543 16.3599 17.8783 16.3085 17.9697 16.2171C18.0611 16.1257 18.1125 16.0017 18.1125 15.8724C18.1125 15.7431 18.0611 15.6191 17.9697 15.5277C17.8783 15.4362 17.7543 15.3849 17.625 15.3849Z" fill="white" stroke="white" stroke-width="0.1"/>
<path d="M17.625 18.0099H9.75C9.62071 18.0099 9.49671 18.0612 9.40529 18.1527C9.31386 18.2441 9.2625 18.3681 9.2625 18.4974C9.2625 18.6267 9.31386 18.7507 9.40529 18.8421C9.49671 18.9335 9.62071 18.9849 9.75 18.9849H17.625C17.7543 18.9849 17.8783 18.9335 17.9697 18.8421C18.0611 18.7507 18.1125 18.6267 18.1125 18.4974C18.1125 18.3681 18.0611 18.2441 17.9697 18.1527C17.8783 18.0612 17.7543 18.0099 17.625 18.0099Z" fill="white" stroke="white" stroke-width="0.1"/>
</svg>
