<svg width="26" height="26" viewBox="0 0 26 26" fill="none" xmlns="http://www.w3.org/2000/svg">
<path d="M1.60767 24.381L6.76271 19.223" stroke="#325BEC" stroke-miterlimit="10" stroke-linecap="round"/>
<path d="M9.92839 13.1298L1.60771 21.4504C0.797429 22.2578 0.797429 23.5676 1.60771 24.3808C2.0085 24.7874 2.53998 24.9849 3.07146 24.9849C3.60003 24.9849 4.13151 24.7874 4.5352 24.3808L12.8559 16.0601" stroke="#325BEC" stroke-miterlimit="10" stroke-linecap="round"/>
<path d="M13.8927 10.6552L20.2937 4.25421L21.7313 5.69472L15.3303 12.0957" stroke="#325BEC" stroke-miterlimit="10" stroke-linecap="round"/>
<path d="M24.9754 2.67463L23.3112 1.0105L20.9965 2.46262L20.2937 4.25455L21.7313 5.69505L23.5232 4.98932L24.9754 2.67463Z" stroke="#325BEC" stroke-miterlimit="10" stroke-linecap="round"/>
<path d="M8.97888 2.39583C7.81428 1.23123 6.1879 0.818826 4.69221 1.14991L5.41536 1.87307L7.45124 3.90895L6.70485 6.69122L3.92258 7.43761L1.8867 5.40173L1.16354 4.67857C0.835362 6.17426 1.24777 7.80064 2.40947 8.96525C3.63796 10.1937 5.38051 10.5858 6.943 10.1531L21.1128 24.3229C22.0015 25.2116 23.4449 25.2116 24.3337 24.3229C25.2224 23.4342 25.2224 21.9908 24.3337 21.1021L10.1638 6.93227C10.5995 5.36688 10.2074 3.62433 8.97888 2.39583Z" stroke="#325BEC" stroke-miterlimit="10" stroke-linecap="round"/>
<path d="M24.3364 24.3201L20.3053 20.289" stroke="#325BEC" stroke-miterlimit="10" stroke-linecap="round"/>
</svg>
