<svg width="18" height="18" viewBox="0 0 18 18" fill="none" xmlns="http://www.w3.org/2000/svg">
<path d="M8.57227 15.5083C8.57227 15.5083 8.57242 15.5085 8.99979 15.125L9.42716 15.5085C9.31825 15.6299 9.16287 15.6992 8.99979 15.6992C8.83671 15.6992 8.68118 15.6297 8.57227 15.5083Z" fill="#325BEC"/>
<path fill-rule="evenodd" clip-rule="evenodd" d="M9 4.98047C7.62574 4.98047 6.51172 6.09449 6.51172 7.46875C6.51172 8.84301 7.62574 9.95703 9 9.95703C10.3743 9.95703 11.4883 8.84301 11.4883 7.46875C11.4883 6.09449 10.3743 4.98047 9 4.98047ZM7.66016 7.46875C7.66016 6.72877 8.26002 6.12891 9 6.12891C9.73998 6.12891 10.3398 6.72877 10.3398 7.46875C10.3398 8.20873 9.73998 8.80859 9 8.80859C8.26002 8.80859 7.66016 8.20873 7.66016 7.46875Z" fill="#325BEC"/>
<path fill-rule="evenodd" clip-rule="evenodd" d="M8.57247 15.5083L9 15.125C9.42737 15.5085 9.42776 15.5081 9.42776 15.5081L9.43147 15.5039L9.44207 15.492C9.45126 15.4817 9.4647 15.4666 9.48208 15.4469C9.5168 15.4076 9.56729 15.35 9.63133 15.2762C9.75931 15.1284 9.94153 14.9154 10.1599 14.6519C10.5961 14.1257 11.1789 13.3958 11.7631 12.5835C12.3457 11.7734 12.9378 10.87 13.3865 9.99815C13.8257 9.14486 14.168 8.24666 14.168 7.46875C14.168 4.61458 11.8542 2.30078 9 2.30078C6.14583 2.30078 3.83203 4.61458 3.83203 7.46875C3.83203 8.24666 4.17427 9.14486 4.61347 9.99815C5.06224 10.87 5.65433 11.7734 6.23694 12.5835C6.82107 13.3958 7.40394 14.1257 7.84012 14.6519C8.05847 14.9154 8.24069 15.1284 8.36867 15.2762C8.43271 15.35 8.4832 15.4076 8.51792 15.4469C8.5353 15.4666 8.54874 15.4817 8.55793 15.492L8.56853 15.5039L8.57247 15.5083ZM4.98047 7.46875C4.98047 5.24882 6.78007 3.44922 9 3.44922C11.2199 3.44922 13.0195 5.24882 13.0195 7.46875C13.0195 7.95936 12.7875 8.65248 12.3654 9.47258C11.9529 10.2741 11.3965 11.1262 10.8307 11.913C10.2664 12.6977 9.70082 13.4062 9.27566 13.919C9.17518 14.0403 9.08265 14.1505 9 14.2479C8.91735 14.1505 8.82482 14.0403 8.72434 13.919C8.29918 13.4062 7.73362 12.6977 7.16931 11.913C6.60348 11.1262 6.04714 10.2741 5.63458 9.47258C5.21245 8.65248 4.98047 7.95936 4.98047 7.46875Z" fill="#325BEC"/>
</svg>
