<svg width="50" height="41" viewBox="0 0 50 41" fill="none" xmlns="http://www.w3.org/2000/svg">
<g clip-path="url(#clip0_460_4276)">
<path d="M23.3443 0V22.6316H18.551V5.92861L14.2152 21.4643L13.8895 22.6316H9.5227L9.2745 21.7331L4.92324 6.12827V22.6316H0.129883V0H7.39748L11.7875 13.8155L16.1698 0H23.3443Z" fill="#383838"/>
<path d="M49.9996 0H26.7852V22.6316H49.9996V0Z" fill="#EC3832"/>
<path d="M37.2787 3.00415C37.2787 4.07231 35.1418 4.3616 34.0732 4.37273V7.71071C35.6119 7.71071 36.8514 7.17665 37.2787 6.90961V19.594H41.0578V3.00415H37.2787Z" fill="white"/>
<path d="M8.00827 34.6318L7.64081 37.3465C6.97139 37.6454 6.23147 37.8098 5.45628 37.8098C2.44124 37.8098 0 35.3093 0 32.221C0 29.1377 2.44124 26.6372 5.45628 26.6372C6.21131 26.6372 6.93111 26.7916 7.58042 27.0756L7.94282 29.7504C7.3338 29.1427 6.50326 28.7691 5.58717 28.7691C3.72478 28.7691 2.21474 30.3132 2.21474 32.221C2.21474 34.1287 3.72478 35.6779 5.58717 35.6779C6.53849 35.6828 7.39924 35.2794 8.00827 34.6318Z" fill="#383838"/>
<path d="M13.3775 36.0019C12.6457 36.0019 11.98 35.7149 11.4921 35.2415L14.6328 33.2674L15.9338 32.4516L16.9401 31.8221C16.2641 30.3818 14.7903 29.3796 13.0828 29.3796C12.9252 29.3796 12.7677 29.3897 12.6152 29.4048C10.4859 29.6365 8.8291 31.4243 8.8291 33.5947C8.8291 34.1336 8.93075 34.6523 9.11875 35.1257C9.28649 35.5537 9.52531 35.9516 9.82011 36.2991C10.5977 37.2206 11.7716 37.8099 13.0777 37.8099C13.1285 37.8099 13.1742 37.8099 13.2251 37.8048C14.4346 37.7645 15.6797 37.4624 16.4267 36.6264L15.5781 35.0652C14.9631 35.5789 14.2466 36.0019 13.3775 36.0019ZM10.8772 33.8415C10.8365 33.6753 10.8111 33.4991 10.8111 33.3177C10.8111 32.094 11.8122 31.1069 13.0421 31.1069C13.2098 31.1069 13.3674 31.1221 13.5249 31.1573C13.8654 31.2329 14.1805 31.3839 14.4447 31.5954L13.9264 31.9228L10.8772 33.8415Z" fill="#383838"/>
<path d="M32.7073 33.4633C33.2522 33.1071 33.6155 32.49 33.6155 31.7877C33.6155 30.6841 32.7124 29.7861 31.5974 29.7861H27.5156V37.6069H31.6327C32.9293 37.6069 33.9838 36.6237 33.9838 35.4147C33.9838 34.5619 33.4642 33.8245 32.7073 33.4633ZM29.5136 31.3011H30.9263C31.3501 31.3011 31.6932 31.6423 31.6932 32.0636C31.6932 32.2744 31.6075 32.4649 31.4662 32.6054C31.3299 32.7459 31.1382 32.8312 30.9213 32.8312H29.5085V31.3011H29.5136ZM31.7538 35.7659C31.5974 35.9214 31.3804 36.0167 31.1433 36.0167H29.5136V34.296H31.1433C31.6226 34.296 32.0111 34.6823 32.0111 35.1588C32.006 35.3946 31.9102 35.6104 31.7538 35.7659Z" fill="#383838"/>
<path d="M47.2126 35.9828C45.8776 35.9828 44.7932 34.9376 44.7932 33.6507C44.7932 32.3638 45.8776 31.3186 47.2126 31.3186C47.8622 31.3186 48.4504 31.5651 48.8852 31.9645L50.0003 30.4902C49.1667 29.9035 48.1231 29.583 47.0796 29.583C44.783 29.583 42.916 31.4024 42.916 33.6458C42.916 35.8892 44.7778 37.7085 47.0796 37.7085C48.1179 37.7085 49.1564 37.393 49.985 36.8112L48.8699 35.3369C48.4453 35.7412 47.8571 35.9828 47.2126 35.9828Z" fill="#383838"/>
<path d="M41.6842 29.2781V37.4349L39.7631 37.6614V33.6535L37.0344 36.2667L35.1133 38.1146V29.6809L37.0344 29.4543V33.7391L39.7631 31.1259L41.6842 29.2781Z" fill="#383838"/>
<path d="M22.3573 29.6846C21.3957 29.6846 20.4846 30.063 19.7609 30.6735C19.7356 30.6937 19.7153 30.7139 19.6951 30.7341V29.6896L17.7617 29.9116V40.654L19.7609 40.4269V37.1725C20.4846 37.7275 21.3906 38.0554 22.3573 38.0554C24.5842 38.0554 26.386 36.1785 26.386 33.8675C26.386 31.5616 24.5842 29.6846 22.3573 29.6846ZM22.0486 36.3096C20.9402 36.3096 20.014 35.5275 19.7609 34.473C19.7153 34.2913 19.6951 34.0996 19.6951 33.9028C19.6951 33.706 19.7204 33.5143 19.7609 33.3326C20.0089 32.2781 20.9402 31.496 22.0486 31.496C23.3493 31.496 24.402 32.5708 24.402 33.8978C24.402 35.2299 23.3493 36.3096 22.0486 36.3096Z" fill="#383838"/>
</g>
<defs>
<clipPath id="clip0_460_4276">
<rect width="50.0001" height="40.6539" fill="white"/>
</clipPath>
</defs>
</svg>
