<svg width="31" height="31" viewBox="0 0 31 31" fill="none" xmlns="http://www.w3.org/2000/svg">
<g clip-path="url(#clip0_435_5799)">
<rect x="-0.000976562" width="31" height="31" rx="8" fill="#EC3832"/>
<path d="M12.5986 13.0571C12.6971 13.0571 12.7915 13.018 12.861 12.9484C12.9306 12.8788 12.9697 12.7844 12.9697 12.686V11.0215H17.4952V12.686C17.4952 12.7844 17.5343 12.8788 17.6039 12.9484C17.6735 13.018 17.7679 13.0571 17.8663 13.0571C17.9647 13.0571 18.0591 13.018 18.1287 12.9484C18.1983 12.8788 18.2374 12.7844 18.2374 12.686V10.7266C18.2383 10.6091 18.1926 10.496 18.1103 10.4122C18.028 10.3283 17.9158 10.2805 17.7983 10.2793H12.6666C12.5492 10.2805 12.4369 10.3283 12.3546 10.4121C12.2723 10.496 12.2266 10.6091 12.2276 10.7266V12.686C12.2276 12.7844 12.2667 12.8788 12.3362 12.9484C12.4058 13.018 12.5002 13.0571 12.5986 13.0571Z" fill="white"/>
<path d="M22.3109 21.7026H19.7764V10.3212C19.7758 9.85302 19.5896 9.40412 19.2585 9.07303C18.9274 8.74195 18.4786 8.55571 18.0103 8.55518H12.454C11.9858 8.55571 11.5369 8.74195 11.2058 9.07304C10.8747 9.40412 10.6885 9.85302 10.688 10.3212V21.7026H8.58105C8.48263 21.7026 8.38825 21.7417 8.31865 21.8113C8.24906 21.8809 8.20996 21.9753 8.20996 22.0737C8.20996 22.1721 8.24906 22.2665 8.31865 22.3361C8.38825 22.4057 8.48263 22.4448 8.58105 22.4448H22.3109C22.4093 22.4448 22.5037 22.4057 22.5733 22.3361C22.6428 22.2665 22.6819 22.1721 22.6819 22.0737C22.6819 21.9753 22.6428 21.8809 22.5733 21.8113C22.5037 21.7417 22.4093 21.7026 22.3109 21.7026ZM12.454 9.29736H18.0103C18.2818 9.29767 18.542 9.40565 18.734 9.59759C18.9259 9.78954 19.0339 10.0498 19.0342 10.3212V13.7569H11.4301V10.3212C11.4304 10.0498 11.5384 9.78954 11.7304 9.59759C11.9223 9.40564 12.1825 9.29767 12.454 9.29736ZM11.4302 21.7026V14.4991H19.0342V21.7026H11.4302Z" fill="white"/>
<path d="M22.6825 12.1176L20.9529 10.388C20.9184 10.3535 20.8775 10.3262 20.8325 10.3075C20.7875 10.2889 20.7392 10.2793 20.6905 10.2793C20.6417 10.2793 20.5935 10.2889 20.5484 10.3075C20.5034 10.3262 20.4625 10.3535 20.428 10.388C20.3936 10.4225 20.3663 10.4634 20.3476 10.5084C20.329 10.5534 20.3194 10.6017 20.3194 10.6504C20.3194 10.6991 20.329 10.7474 20.3476 10.7924C20.3663 10.8374 20.3936 10.8784 20.428 10.9128L22.049 12.5338V14.201H21.358V12.2539C21.358 12.1555 21.3189 12.0611 21.2493 11.9915C21.1798 11.9219 21.0854 11.8828 20.9869 11.8828C20.8885 11.8828 20.7941 11.9219 20.7245 11.9915C20.6549 12.0611 20.6158 12.1555 20.6158 12.2539V14.5721C20.6158 14.6705 20.6549 14.7649 20.7245 14.8345C20.7941 14.9041 20.8885 14.9432 20.9869 14.9432H21.3697V19.7319C21.3696 19.8438 21.3251 19.951 21.246 20.0301C21.1669 20.1092 21.0597 20.1537 20.9478 20.1538H20.3877C20.2893 20.1538 20.1949 20.1929 20.1253 20.2625C20.0557 20.3321 20.0166 20.4265 20.0166 20.5249C20.0166 20.6234 20.0557 20.7177 20.1253 20.7873C20.1949 20.8569 20.2893 20.896 20.3877 20.896H20.9479C21.2565 20.8957 21.5524 20.7729 21.7706 20.5547C21.9888 20.3364 22.1116 20.0405 22.1119 19.7319V14.9432H22.4201C22.5185 14.9432 22.6129 14.9041 22.6825 14.8345C22.7521 14.7649 22.7912 14.6705 22.7912 14.5721V12.38C22.7912 12.2816 22.7521 12.1872 22.6825 12.1176Z" fill="white"/>
</g>
<defs>
<clipPath id="clip0_435_5799">
<rect width="31" height="31" fill="white" transform="translate(-0.000976562)"/>
</clipPath>
</defs>
</svg>
