<svg width="31" height="31" viewBox="0 0 31 31" fill="none" xmlns="http://www.w3.org/2000/svg">
<g clip-path="url(#clip0_435_5798)">
<rect x="-0.000976562" width="31" height="31" rx="8" fill="#EC3832"/>
<path d="M19.8193 11.8572L18.9531 10.1248V9.34175C19.2615 9.23178 19.4844 8.93959 19.4844 8.59375V8.0625C19.4844 7.62316 19.1268 7.26562 18.6875 7.26562H16.5625C16.1232 7.26562 15.7656 7.62316 15.7656 8.0625V8.59375C15.7656 8.93959 15.9885 9.23178 16.2969 9.34175V10.0077L12.1531 11.6652C11.4431 11.9491 10.9844 12.627 10.9844 13.3917V21.875C10.9844 22.9003 11.8184 23.7344 12.8438 23.7344H18.1562C19.1816 23.7344 20.0156 22.9003 20.0156 21.875V12.6889C20.0156 12.4015 19.9479 12.1141 19.8193 11.8572ZM16.2969 8.0625C16.2969 7.91614 16.4161 7.79688 16.5625 7.79688H18.6875C18.8339 7.79688 18.9531 7.91614 18.9531 8.0625V8.59375C18.9531 8.74011 18.8339 8.85938 18.6875 8.85938H16.5625C16.4161 8.85938 16.2969 8.74011 16.2969 8.59375V8.0625ZM12.3505 12.1584L16.8281 10.3673V9.39062H18.4219V10.2502L19.3441 12.0947C19.4358 12.2782 19.4844 12.4838 19.4844 12.6889V13.1094H13.1094V13.6406H19.4844V21.875C19.4844 21.9658 19.4751 22.0548 19.4575 22.1406H11.5425C11.5249 22.0548 11.5156 21.9658 11.5156 21.875V13.6539L12.5813 13.6406L12.5749 13.1094L11.5462 13.1221C11.6346 12.6908 11.9289 12.3271 12.3505 12.1584ZM18.1562 23.2031H12.8438C12.4116 23.2031 12.0307 22.9925 11.7882 22.6719H19.2121C18.9693 22.9925 18.5884 23.2031 18.1562 23.2031Z" fill="white"/>
<path d="M15.5 14.9453L13.8539 17.9631C13.7145 18.2189 13.6406 18.5084 13.6406 18.7995C13.6406 19.763 14.4245 20.5468 15.3879 20.5468H15.6124C16.5755 20.5468 17.3594 19.763 17.3594 18.7995C17.3594 18.5081 17.2855 18.2189 17.1461 17.9628L15.5 14.9453ZM15.6121 20.0156H15.3876C14.7175 20.0156 14.1719 19.47 14.1719 18.7995C14.1719 18.5969 14.2231 18.3955 14.3204 18.2173L15.5 16.0546L16.6796 18.2173C16.7769 18.3955 16.8281 18.5969 16.8281 18.7995C16.8281 19.47 16.2825 20.0156 15.6121 20.0156Z" fill="white"/>
<path d="M12.0469 21.6094H18.9531V14.1719H12.0469V21.6094ZM12.5781 14.7031H18.4219V21.0781H12.5781V14.7031Z" fill="white"/>
</g>
<defs>
<clipPath id="clip0_435_5798">
<rect width="31" height="31" fill="white" transform="translate(-0.000976562)"/>
</clipPath>
</defs>
</svg>
