<svg width="31" height="31" viewBox="0 0 31 31" fill="none" xmlns="http://www.w3.org/2000/svg">
<g clip-path="url(#clip0_435_5791)">
<rect x="-0.000976562" width="31" height="31" rx="8" fill="#EC3832"/>
<path d="M21.3438 13.1719H16.2969V12.6406H16.7128L18.0282 10.4482C18.2856 10.0192 18.4219 9.52777 18.4219 9.02733C18.4219 7.5045 17.183 6.26562 15.6602 6.26562H15.3401C13.817 6.26562 12.5781 7.5045 12.5781 9.02733C12.5781 9.52777 12.7144 10.0192 12.9715 10.4484L14.2872 12.6406H14.7031V13.1719H9.65625C9.21691 13.1719 8.85938 13.5294 8.85938 13.9688V21.9375C8.85938 22.3768 9.21691 22.7344 9.65625 22.7344H21.3438C21.7831 22.7344 22.1406 22.3768 22.1406 21.9375V13.9688C22.1406 13.5294 21.7831 13.1719 21.3438 13.1719ZM16.8281 22.2031H15.7656V19.5469H17.3594V17.9531H18.4219V15.8281H16.2969V14.7656H20.5469V17.4219H19.4844V19.0156H18.4219V20.6094H16.8281V22.2031ZM17.8906 9.02733C17.8906 9.20556 17.8657 9.38141 17.824 9.553C16.9139 9.20052 16.2969 8.3197 16.2969 7.32812V6.89064C17.2173 7.16556 17.8906 8.01875 17.8906 9.02733ZM14.7031 6.89064V7.32812C14.7031 8.3197 14.0861 9.20052 13.176 9.553C13.1343 9.38141 13.1094 9.20556 13.1094 9.02733C13.1094 8.01875 13.7827 7.16556 14.7031 6.89064ZM13.4271 10.1751C13.4029 10.1347 13.3848 10.0917 13.3633 10.0503C14.4784 9.61994 15.2344 8.54203 15.2344 7.32812V6.80219C15.2697 6.80059 15.3042 6.79688 15.3398 6.79688H15.6599C15.6958 6.79688 15.7303 6.80059 15.7656 6.80219V7.32812C15.7656 8.54203 16.5216 9.61994 17.6367 10.05C17.6152 10.0914 17.5971 10.1345 17.5729 10.1748L16.4122 12.1094H14.5881L13.4271 10.1751ZM15.7656 12.6406V15.8281H15.2344V12.6406H15.7656ZM14.7031 15.8281H13.6406V14.7656H14.7031V15.8281ZM9.39062 21.9375V13.9688C9.39062 13.8224 9.50963 13.7031 9.65625 13.7031H14.7031V14.2344H13.1094V16.3594H17.8906V17.4219H16.8281V19.0156H15.2344V22.2031H9.65625C9.50963 22.2031 9.39062 22.0841 9.39062 21.9375ZM21.6094 21.9375C21.6094 22.0841 21.4904 22.2031 21.3438 22.2031H17.3594V21.1406H18.9531V19.5469H20.0156V17.9531H21.0781V14.2344H16.2969V13.7031H21.3438C21.4904 13.7031 21.6094 13.8224 21.6094 13.9688V21.9375Z" fill="white"/>
<path d="M9.92188 16.3594H12.5781V14.2344H9.92188V16.3594ZM10.4531 14.7656H12.0469V15.8281H10.4531V14.7656Z" fill="white"/>
<path d="M9.92188 21.6719H12.0469V16.8906H9.92188V21.6719ZM10.4531 21.1406V20.6094H11.5156V21.1406H10.4531ZM11.5156 19.5469V20.0781H10.4531V19.5469H11.5156ZM10.4531 19.0156V18.4844H11.5156V19.0156H10.4531ZM11.5156 17.4219V17.9531H10.4531V17.4219H11.5156Z" fill="white"/>
</g>
<defs>
<clipPath id="clip0_435_5791">
<rect width="31" height="31" fill="white" transform="translate(-0.000976562)"/>
</clipPath>
</defs>
</svg>
