<svg width="26" height="26" viewBox="0 0 26 26" fill="none" xmlns="http://www.w3.org/2000/svg">
<path d="M13 25C19.6274 25 25 19.6274 25 13C25 6.37258 19.6274 1 13 1C6.37258 1 1 6.37258 1 13C1 19.6274 6.37258 25 13 25Z" stroke="#325BEC" stroke-miterlimit="10" stroke-linecap="round"/>
<path d="M12.9999 20.7909C17.3027 20.7909 20.7908 17.3028 20.7908 13C20.7908 8.69729 17.3027 5.20921 12.9999 5.20921C8.69718 5.20921 5.20911 8.69729 5.20911 13C5.20911 17.3028 8.69718 20.7909 12.9999 20.7909Z" stroke="#325BEC" stroke-miterlimit="10" stroke-linecap="round"/>
<path d="M14.3505 14.348C15.0968 13.6017 15.0968 12.3932 14.3505 11.6469C13.6043 10.9006 12.3957 10.9006 11.6494 11.6469C10.9031 12.3932 10.9031 13.6017 11.6494 14.348C12.3957 15.0943 13.6043 15.0943 14.3505 14.348Z" stroke="#325BEC" stroke-miterlimit="10" stroke-linecap="round"/>
<path d="M14.1982 20.6875V17.4312C14.1982 15.6443 15.6469 14.1956 17.4339 14.1956H20.6902" stroke="#325BEC" stroke-miterlimit="10" stroke-linecap="round"/>
<path d="M5.3125 14.1956H8.56879C10.3557 14.1956 11.8044 15.6443 11.8044 17.4312V20.6875" stroke="#325BEC" stroke-miterlimit="10" stroke-linecap="round"/>
<path d="M11.8044 5.30991V8.5662C11.8044 10.3532 10.3557 11.8018 8.56879 11.8018H5.3125" stroke="#325BEC" stroke-miterlimit="10" stroke-linecap="round"/>
<path d="M20.6902 11.8019H17.4339C15.6469 11.8019 14.1982 10.3533 14.1982 8.56629V5.31" stroke="#325BEC" stroke-miterlimit="10" stroke-linecap="round"/>
<path d="M22.9289 12.8684C22.8954 10.3687 21.9296 7.88194 20.0238 5.97362C18.0923 4.04205 15.559 3.0711 13.0258 3.06593" stroke="#325BEC" stroke-miterlimit="10" stroke-linecap="round"/>
</svg>
