<svg width="24" height="24" viewBox="0 0 24 24" fill="none" xmlns="http://www.w3.org/2000/svg">
<g clip-path="url(#clip0_123_53)">
<path d="M6.53988 14.9438L6.53057 14.9568V14.9729V15.871V15.921H6.58057H12.3871H12.4371V15.871V12V11.95H12.3871H8.70379H8.67806L8.6631 11.9709L6.53988 14.9438ZM11.5628 12.8242V15.0468H7.54063L9.12833 12.8242H11.5628Z" fill="#325BEC" stroke="#325BEC" stroke-width="0.1"/>
<path d="M12.7742 11.95H12.7242V12V15.871V15.921H12.7742H18.5807H18.6307V15.871V14.9729V14.9568L18.6213 14.9438L16.4981 11.9709L16.4832 11.95H16.4574H12.7742ZM13.5984 15.0468V12.8242H16.033L17.6207 15.0468H13.5984Z" fill="#325BEC" stroke="#325BEC" stroke-width="0.1"/>
<path d="M20.592 23.1758H24H24.05V23.2258V24V24.05H24H5.41938C4.04674 24.05 2.90828 23.0414 2.69774 21.7274H1.54842C0.681563 21.7274 -0.05 20.9959 -0.05 20.129V17.4194C-0.05 16.2431 0.712386 15.292 1.8464 15.0559L1.84836 15.0555L1.84837 15.0556L4.18523 14.6659C4.48892 14.6048 4.74456 14.4326 5.08783 14.0377L6.99912 11.359L7.00037 11.3573L7.00041 11.3573C7.25819 11.0269 7.53378 10.7874 7.84625 10.6307C8.15884 10.474 8.5055 10.4017 8.90333 10.4017H16.2582C16.6558 10.4017 17.0023 10.474 17.3136 10.6289C17.6247 10.7839 17.8979 11.02 18.151 11.3437L18.1523 11.3454L18.1523 11.3454L20.0963 14.0666C20.2574 14.2504 20.3915 14.3774 20.5317 14.4706C20.6717 14.5637 20.8199 14.6245 21.0107 14.6728L20.592 23.1758ZM20.592 23.1758C20.9601 22.7828 21.2132 22.2823 21.3022 21.7274H22.8387C23.3305 21.7274 23.6372 21.5648 23.819 21.3256C23.9989 21.0889 24.05 20.7858 24.05 20.5161V17.0322C24.05 16.5389 23.8489 16.0756 23.5635 15.7216C23.2792 15.3691 22.9066 15.1193 22.556 15.0594L21.0108 14.6728L20.592 23.1758ZM0.824209 20.129V18.2435H1.49842V18.9677V19.0177H1.54842H2.32263H2.37263V18.9677V18.1935C2.37263 17.9349 2.30132 17.727 2.15814 17.5838C2.01496 17.4406 1.80703 17.3693 1.54842 17.3693H0.824814C0.846586 16.4744 1.45246 16.0311 2.00856 15.9147L4.34254 15.5255L4.34255 15.5255L4.34417 15.5252C4.86374 15.4208 5.28471 15.1436 5.77227 14.5802L5.77244 14.5803L5.77516 14.5765L7.69997 11.8809C7.87499 11.6572 8.04274 11.5071 8.23133 11.4122C8.41996 11.3174 8.63349 11.2759 8.90324 11.2759H16.2581C16.5277 11.2759 16.7412 11.3174 16.9287 11.4107C17.116 11.504 17.2813 11.6508 17.4513 11.8679L19.4089 14.6057L19.4088 14.6058L19.4119 14.6094C19.7954 15.0504 20.1633 15.3603 20.7969 15.5204L20.797 15.5204L22.374 15.9137L22.374 15.9138L22.3777 15.9145C22.5259 15.94 22.726 16.0752 22.8908 16.2822C23.0544 16.4875 23.1758 16.7544 23.1758 17.0323V20.5161C23.1758 20.5987 23.1724 20.6603 23.1631 20.7072C23.1539 20.7535 23.1398 20.7809 23.1217 20.799C23.1036 20.8172 23.0762 20.8313 23.0299 20.8405C22.983 20.8498 22.9213 20.8532 22.8387 20.8532H21.3023C21.0917 19.5393 19.9533 18.5307 18.5806 18.5307C17.208 18.5307 16.0694 19.5393 15.859 20.8532H8.14103C7.93049 19.5393 6.79203 18.5307 5.41938 18.5307C4.04674 18.5307 2.9082 19.5393 2.69774 20.8532H1.54842C1.16381 20.8532 0.824209 20.5137 0.824209 20.129ZM5.41938 23.1759C4.37974 23.1759 3.53386 22.3299 3.53386 21.2903C3.53386 20.2507 4.37974 19.4048 5.41938 19.4048C6.45903 19.4048 7.30491 20.2507 7.30491 21.2903C7.30491 22.33 6.45903 23.1759 5.41938 23.1759ZM15.859 21.7274C15.9477 22.2823 16.2008 22.7828 16.5692 23.1758H7.43075C7.79886 22.7828 8.05195 22.2823 8.14102 21.7274H15.859ZM18.5806 23.1758C17.541 23.1758 16.6951 22.3299 16.6951 21.2903C16.6951 20.2506 17.541 19.4047 18.5806 19.4047C19.6203 19.4047 20.4661 20.2506 20.4661 21.2903C20.4661 22.3299 19.6203 23.1758 18.5806 23.1758Z" fill="#325BEC" stroke="#325BEC" stroke-width="0.1"/>
<path d="M11.2258 16.5952H11.1758V16.6452V17.4194V17.4694H11.2258H12.3871H12.4371V17.4194V16.6452V16.5952H12.3871H11.2258Z" fill="#325BEC" stroke="#325BEC" stroke-width="0.1"/>
<path d="M6.63068 21.2903V21.2903C6.6306 20.6225 6.08723 20.079 5.41937 20.079C4.75151 20.079 4.20806 20.6225 4.20806 21.2903C4.20806 21.9582 4.75151 22.5017 5.41937 22.5017C6.08723 22.5017 6.63068 21.9582 6.63068 21.2903ZM5.41937 21.6274C5.23364 21.6274 5.08227 21.4764 5.08227 21.2903C5.08227 21.1043 5.23364 20.9532 5.41937 20.9532C5.6051 20.9532 5.75648 21.1043 5.75648 21.2903C5.75648 21.4764 5.60502 21.6274 5.41937 21.6274Z" fill="#325BEC" stroke="#325BEC" stroke-width="0.1"/>
<path d="M18.5806 20.079C17.9128 20.079 17.3693 20.6225 17.3693 21.2903C17.3693 21.9582 17.9128 22.5017 18.5806 22.5017C19.2485 22.5017 19.7919 21.9582 19.7919 21.2903C19.7919 20.6225 19.2486 20.079 18.5806 20.079ZM18.5806 21.6274C18.3949 21.6274 18.2435 21.4764 18.2435 21.2903C18.2435 21.1043 18.3949 20.9532 18.5806 20.9532C18.7664 20.9532 18.9177 21.1043 18.9177 21.2903C18.9177 21.4764 18.7664 21.6274 18.5806 21.6274Z" fill="#325BEC" stroke="#325BEC" stroke-width="0.1"/>
<path d="M1.93555 23.1758H1.88555V23.2258V24V24.05H1.93555H2.70976H2.75976V24V23.2258V23.1758H2.70976H1.93555Z" fill="#325BEC" stroke="#325BEC" stroke-width="0.1"/>
<path d="M0.387085 23.1758H0.337085V23.2258V24V24.05H0.387085H1.16129H1.21129V24V23.2258V23.1758H1.16129H0.387085Z" fill="#325BEC" stroke="#325BEC" stroke-width="0.1"/>
<path d="M5.03223 3.82097H4.98223V3.87097V9.67746V9.72746H5.03223H5.80644H5.85644V9.67746V3.87097V3.82097H5.80644H5.03223Z" fill="#325BEC" stroke="#325BEC" stroke-width="0.1"/>
<path d="M2.32251 3.82097H2.27251V3.87097V11.2258V11.2758H2.32251H3.09672H3.14672V11.2258V3.87097V3.82097H3.09672H2.32251Z" fill="#325BEC" stroke="#325BEC" stroke-width="0.1"/>
<path d="M18.5806 3.82097H18.5306V3.87097V11.2258V11.2758H18.5806H19.3548H19.4048V11.2258V3.87097V3.82097H19.3548H18.5806Z" fill="#325BEC" stroke="#325BEC" stroke-width="0.1"/>
<path d="M21.2904 3.82097H21.2404V3.87097V11.2258V11.2758H21.2904H22.0646H22.1146V11.2258V3.87097V3.82097H22.0646H21.2904Z" fill="#325BEC" stroke="#325BEC" stroke-width="0.1"/>
<path d="M7.74194 3.82097H7.69194V3.87097V9.67746V9.72746H7.74194H8.51615H8.56615V9.67746V3.87097V3.82097H8.51615H7.74194Z" fill="#325BEC" stroke="#325BEC" stroke-width="0.1"/>
<path d="M10.4515 5.36937H10.4015V5.41937V9.67744V9.72744H10.4515H11.2257H11.2757V9.67744V5.41937V5.36937H11.2257H10.4515Z" fill="#325BEC" stroke="#325BEC" stroke-width="0.1"/>
<path d="M13.1613 3.82097H13.1113V3.87097V8.12904V8.17904H13.1613H13.9355H13.9855V8.12904V3.87097V3.82097H13.9355H13.1613Z" fill="#325BEC" stroke="#325BEC" stroke-width="0.1"/>
<path d="M15.871 3.82097H15.821V3.87097V9.67746V9.72746H15.871H16.6452H16.6952V9.67746V3.87097V3.82097H16.6452H15.871Z" fill="#325BEC" stroke="#325BEC" stroke-width="0.1"/>
<path d="M22.2581 1.11131H17.4694V0V-0.05H17.4194H16.6452H16.5952V0V1.11131H7.40483V0V-0.05H7.35483H6.58062H6.53062V0V1.11131H1.74197C0.753913 1.11131 -0.05 1.91522 -0.05 2.9032V3.48386V3.53386H0H24H24.05V3.48386V2.9032C24.05 1.91523 23.2461 1.11131 22.2581 1.11131ZM23.07 2.65965H0.930039C1.00328 2.49561 1.11075 2.33629 1.24039 2.21371C1.38806 2.0741 1.56075 1.98544 1.74197 1.98544H22.2581C22.4393 1.98544 22.612 2.0741 22.7596 2.21371C22.8893 2.33629 22.9968 2.49561 23.07 2.65965Z" fill="#325BEC" stroke="#325BEC" stroke-width="0.1"/>
<path d="M5.03223 11.95H4.98223V12V12.7742V12.8242H5.03223H5.80644H5.85644V12.7742V12V11.95H5.80644H5.03223Z" fill="#325BEC" stroke="#325BEC" stroke-width="0.1"/>
<path d="M21.2904 11.95H21.2404V12V12.7742V12.8242H21.2904H22.0646H22.1146V12.7742V12V11.95H22.0646H21.2904Z" fill="#325BEC" stroke="#325BEC" stroke-width="0.1"/>
<path d="M2.32251 11.95H2.27251V12V12.7742V12.8242H2.32251H3.09672H3.14672V12.7742V12V11.95H3.09672H2.32251Z" fill="#325BEC" stroke="#325BEC" stroke-width="0.1"/>
<path d="M2.32251 13.4984H2.27251V13.5484V14.3226V14.3726H2.32251H3.09672H3.14672V14.3226V13.5484V13.4984H3.09672H2.32251Z" fill="#325BEC" stroke="#325BEC" stroke-width="0.1"/>
<path d="M21.2904 13.4984H21.2404V13.5484V14.3226V14.3726H21.2904H22.0646H22.1146V14.3226V13.5484V13.4984H22.0646H21.2904Z" fill="#325BEC" stroke="#325BEC" stroke-width="0.1"/>
<path d="M13.1613 8.85326H13.1113V8.90326V9.67747V9.72747H13.1613H13.9355H13.9855V9.67747V8.90326V8.85326H13.9355H13.1613Z" fill="#325BEC" stroke="#325BEC" stroke-width="0.1"/>
<path d="M5.03223 10.4016H4.98223V10.4516V11.2258V11.2758H5.03223H5.80644H5.85644V11.2258V10.4516V10.4016H5.80644H5.03223Z" fill="#325BEC" stroke="#325BEC" stroke-width="0.1"/>
<path d="M0 13.8855H-0.05V13.9355V14.7098V14.7598H0H0.774209H0.824209V14.7098V13.9355V13.8855H0.774209H0Z" fill="#325BEC" stroke="#325BEC" stroke-width="0.1"/>
<path d="M23.2258 13.8855H23.1758V13.9355V14.7098V14.7598H23.2258H24H24.05V14.7098V13.9355V13.8855H24H23.2258Z" fill="#325BEC" stroke="#325BEC" stroke-width="0.1"/>
<path d="M10.4515 3.82097H10.4015V3.87097V4.64518V4.69518H10.4515H11.2257H11.2757V4.64518V3.87097V3.82097H11.2257H10.4515Z" fill="#325BEC" stroke="#325BEC" stroke-width="0.1"/>
</g>
<defs>
<clipPath id="clip0_123_53">
<rect width="24" height="24" fill="white"/>
</clipPath>
</defs>
</svg>
