<svg width="26" height="26" viewBox="0 0 26 26" fill="none" xmlns="http://www.w3.org/2000/svg">
<path d="M24.2669 24.2585L16.5642 16.5576" stroke="#325BEC" stroke-miterlimit="10" stroke-linecap="round"/>
<path d="M11.3925 2.78198C9.93057 1.32038 7.90811 0.75711 6.01279 1.09507L9.03492 4.11649L7.99479 7.99293L4.11746 9.03281L1.09534 6.01138C0.757302 7.90338 1.31781 9.92537 2.78264 11.3899C4.52195 13.1288 7.05291 13.5938 9.21694 12.7879L20.6929 24.2613C21.6781 25.2463 23.2759 25.2463 24.2611 24.2613C25.2463 23.2763 25.2463 21.6789 24.2611 20.6939L12.7851 9.22056C13.597 7.05126 13.1318 4.52089 11.3925 2.78198Z" stroke="#325BEC" stroke-miterlimit="10" stroke-linecap="round"/>
<path d="M3.24207 5.60685L3.74756 3.72063L5.63089 3.21802L7.01162 4.59586L6.50612 6.47919L4.62279 6.98469L3.24207 5.60685Z" stroke="#325BEC" stroke-miterlimit="10" stroke-linecap="round"/>
<path d="M3.88903 22.4414L1.89258 24.2554C1.89258 24.2554 3.08583 24.9977 5.12851 24.9977C7.17118 24.9977 8.36443 24.2554 8.36443 24.2554L6.36798 22.4414" stroke="#325BEC" stroke-miterlimit="10" stroke-linecap="round"/>
<path d="M5.75228 17.9265H4.50153C4.16357 17.9265 3.88916 18.201 3.88916 18.5389V22.4414H6.36754V18.5389C6.36754 18.201 6.09313 17.9265 5.75228 17.9265Z" stroke="#325BEC" stroke-miterlimit="10" stroke-linecap="round"/>
<path d="M3.88916 20.0265L6.36754 18.5591" stroke="#325BEC" stroke-miterlimit="10" stroke-linecap="round"/>
<path d="M3.88916 21.8087L6.36754 20.3413" stroke="#325BEC" stroke-miterlimit="10" stroke-linecap="round"/>
</svg>
