<svg width="31" height="31" viewBox="0 0 31 31" fill="none" xmlns="http://www.w3.org/2000/svg">
<g clip-path="url(#clip0_435_5790)">
<rect x="-0.000976562" width="31" height="31" rx="8" fill="#EC3832"/>
<path d="M22.9375 13.6406H22.4062C21.9669 13.6406 21.6094 13.9982 21.6094 14.4375V16.8281H21.0781V12.5781H22.6719V10.4531H21.0781V9.92188C21.0781 9.62889 20.8399 9.39062 20.5469 9.39062H20.0156C19.7226 9.39062 19.4844 9.62889 19.4844 9.92188H10.4531C10.4531 9.62889 10.2149 9.39062 9.92188 9.39062H9.39062C9.09764 9.39062 8.85938 9.62889 8.85938 9.92188V10.4531H7.26562V12.5781H8.85938V18.4219H7.26562V20.5469H8.85938V21.0781C8.85938 21.3711 9.09764 21.6094 9.39062 21.6094H9.92188C10.2149 21.6094 10.4531 21.3711 10.4531 21.0781H19.4844C19.4844 21.3711 19.7226 21.6094 20.0156 21.6094H20.5469C20.8399 21.6094 21.0781 21.3711 21.0781 21.0781V20.5469H22.9375V19.4844C23.3768 19.4844 23.7344 19.1268 23.7344 18.6875V14.4375C23.7344 13.9982 23.3768 13.6406 22.9375 13.6406ZM7.79688 12.0469V10.9844H8.85938V12.0469H7.79688ZM7.79688 20.0156V18.9531H8.85938V20.0156H7.79688ZM19.4844 10.4531V10.9844H18.4219V11.5156H19.4844V12.0469H10.4531V11.5156H17.8906V10.9844H10.4531V10.4531H19.4844ZM19.4844 13.6406V14.1719H10.4531V13.6406H11.5156V13.1094H10.4531V12.5781H19.4844V13.1094H12.0469V13.6406H19.4844ZM19.4844 16.8281V17.3594H10.4531V16.8281H14.7031V16.2969H10.4531V15.7656H19.4844V16.2969H15.2344V16.8281H19.4844ZM19.4844 18.9531V19.4844H10.4531V18.9531H15.5V18.4219H10.4531V17.8906H19.4844V18.4219H16.0312V18.9531H19.4844ZM10.4531 15.2344V14.7031H19.4844V15.2344H10.4531ZM9.39062 21.0781V9.92188H9.92188L9.92214 21.0781H9.39062ZM10.4531 20.5469V20.0156H19.4844V20.5469H10.4531ZM21.6094 17.3594V18.4219H21.0781V17.3594H21.6094ZM22.1406 10.9844V12.0469H21.0781V10.9844H22.1406ZM20.0156 21.0781V9.92188H20.5469L20.5471 21.0781H20.0156ZM22.4062 20.0156H21.0781V18.9531H21.6582C21.7682 19.2615 22.0604 19.4844 22.4062 19.4844V20.0156ZM23.2031 18.6875C23.2031 18.8339 23.0841 18.9531 22.9375 18.9531H22.4062C22.2596 18.9531 22.1406 18.8339 22.1406 18.6875V14.4375C22.1406 14.2911 22.2596 14.1719 22.4062 14.1719H22.9375C23.0841 14.1719 23.2031 14.2911 23.2031 14.4375V18.6875Z" fill="white" fill-opacity="0.9"/>
</g>
<defs>
<clipPath id="clip0_435_5790">
<rect width="31" height="31" fill="white" transform="translate(-0.000976562)"/>
</clipPath>
</defs>
</svg>
